<svg transform="scale(1)" id="_0353_aedin" xmlns="http://www.w3.org/2000/svg" viewBox="0 0 500 500" class="show_show__wrapper__graphic__5Waiy "><title>React</title><defs><style>.cls-1{fill:#fff;}.cls-2{fill:#04428E;}.cls-3{opacity:.22;}.cls-4{opacity:.11;}.cls-5{fill:#231f20;}</style></defs><g id="form"><g id="tab"><path class="cls-1" d="M121.99,84.9c-.07-1.07-.18-2.24-.97-3.04-.95-.97-2.53-1.09-3.96-1.13-15.21-.52-85.51-.52-100.72,0-1.42,.05-3.01,.16-3.96,1.13-.78,.8-.89,1.97-.97,3.04-.93,13.62-.69,132.9,1.04,150.51,.24,2.49,.76,5.27,2.99,6.72,1.76,1.14,4.1,1.09,6.25,1.01,14.99-.6,75.01-.6,90.01,0,2.16,.09,4.49,.13,6.25-1.01,2.23-1.44,2.74-4.23,2.99-6.72,1.73-17.61,1.97-136.89,1.04-150.51Z"></path><path class="cls-5" d="M123.44,84.52c-.13-1.71-.54-3.22-2.27-3.89-1.17-.46-2.48-.46-3.73-.5-1.35-.04-2.7-.07-4.04-.1-3.94-.07-7.87-.11-11.81-.15-10.81-.09-21.61-.12-32.42-.13-11,0-22,.02-33,.11-4.21,.03-8.42,.07-12.63,.14-1.5,.02-2.99,.05-4.49,.09-2.29,.06-4.72,0-6.81,1.08-2.7,1.39-2.33,4.92-2.41,7.57s-.13,5.2-.17,7.8c-.12,7.96-.17,15.91-.19,23.87-.03,10.2-.03,20.41,0,30.61,.03,10.73,.1,21.47,.21,32.2,.09,9.54,.22,19.09,.42,28.63,.14,6.64,.28,13.28,.64,19.91,.16,3.03,.05,6.75,1.8,9.32,2,2.94,5.78,2.75,8.93,2.63,1.49-.06,2.98-.09,4.48-.13,9.92-.22,19.85-.26,29.77-.29,11.57-.03,23.14-.02,34.7,.08,4.58,.04,9.16,.09,13.74,.18,1.66,.03,3.32,.07,4.98,.12,2.78,.09,5.62,.31,8.29-.69,3.36-1.26,4.54-4.08,4.93-7.44,.11-.99,.18-1.99,.25-2.98,.17-2.58,.27-5.17,.36-7.76,.28-7.93,.43-15.87,.55-23.81,.16-10.19,.26-20.39,.34-30.59,.08-10.73,.12-21.47,.13-32.2,0-9.56,0-19.11-.07-28.67-.04-6.66-.09-13.32-.26-19.98-.04-1.68-.08-3.36-.2-5.04-.03-.51-2.95-.01-2.9,.78,.3,4.5,.29,9.02,.35,13.53,.11,8.1,.15,16.2,.17,24.3,.03,10.09,.02,20.19-.02,30.28-.04,10.52-.11,21.05-.22,31.57-.1,9.25-.22,18.49-.42,27.74-.14,6.43-.28,12.86-.63,19.28-.17,3.1,0,7.29-2.3,9.59-1.69,1.68-4.85,.95-7.07,.89-1.69-.05-3.38-.09-5.07-.12-10.12-.19-20.25-.23-30.38-.25-11.23-.02-22.46,0-33.69,.1-4.35,.04-8.71,.09-13.06,.18-1.6,.03-3.2,.07-4.8,.13-3.07,.1-6.64,.34-8.32-2.8-1.38-2.57-1.3-5.97-1.46-8.86-.15-2.81-.25-5.61-.34-8.42-.26-8.09-.4-16.19-.52-24.29-.15-10.14-.24-20.28-.31-30.42-.07-10.48-.11-20.96-.11-31.43,0-9.29,.01-18.57,.08-27.86,.05-6.4,.09-12.8,.26-19.19,.05-1.95-.09-4.14,.34-6.05,.19-.82,.55-1.62,1.42-1.81,.55-.12,1.15-.08,1.71-.1,.43-.01,1.02-.03,1.62-.04,1.53-.04,3.07-.06,4.6-.09,9.36-.14,18.72-.18,28.07-.21,11.22-.03,22.44-.03,33.66,.01,8.97,.03,17.93,.07,26.9,.23,1.33,.02,2.67,.05,4,.09,.88,.02,1.79,0,2.66,.16,2.14,.37,2.72,1.89,2.86,3.85,.04,.52,2.96,.01,2.9-.78Z"></path></g><g id="character"><g><path class="cls-2" d="M67.92,58.33c-8.68-1.42-17.75,3.49-22.23,11.06s-4.6,17.27-1.34,25.44c.68,1.71,1.51,3.37,2.62,4.83,3.91,5.16,10.72,7.17,17.16,7.85,6.31,.67,13.23,.18,18.14-3.84,2.98-2.44,4.9-5.93,6.37-9.49,2.09-5.08,3.4-10.7,2.23-16.07-.49-2.25-1.4-4.38-2.4-6.45-1.41-2.94-3.06-5.87-5.6-7.92-2.97-2.4-6.83-3.33-10.54-4.2-.84-.2-1.69-.39-2.53-.59"></path><path class="cls-2" d="M68.83,57.64c-9.75-1.5-19.95,3.83-24.78,12.32-2.64,4.63-3.66,10.07-3.35,15.36,.31,5.23,1.83,11,5.14,15.16,3.07,3.85,7.83,5.88,12.52,6.93,4.95,1.11,10.3,1.48,15.32,.57,5.16-.94,9.86-3.34,12.97-7.66,3.29-4.56,5.48-10.52,5.99-16.11,.59-6.4-1.92-12.91-5.67-18.05-3.84-5.27-10.03-6.45-16.01-7.85-.67-.16-1.44-.02-2.04,.32-.26,.15-.99,.78-.3,.94,4.71,1.1,9.99,1.92,13.65,5.36,1.8,1.69,3.09,3.82,4.2,6.01,1.22,2.4,2.36,4.91,2.94,7.55,1.17,5.37-.17,10.92-2.22,15.9-1.91,4.64-4.68,9.17-9.49,11.2-4.29,1.82-9.26,1.69-13.79,1.09s-9.01-1.82-12.61-4.58c-3.9-2.99-5.88-7.65-6.96-12.33-1.08-4.69-1.1-9.64,.15-14.3,2.65-9.85,11.88-18.1,22.51-16.46,.62,.09,1.59-.1,2.05-.55,.4-.39,.41-.73-.22-.83h0Z"></path></g><g><path class="cls-5" d="M68.53,65.5c-2.67-.76-5.7,.46-7.37,2.69-1.66,2.23-2.03,5.27-1.26,7.95,.28,.96,.69,1.89,1.31,2.68,1.16,1.5,2.99,2.42,4.88,2.56s3.8-.48,5.31-1.62c1.74-1.31,2.94-3.31,3.3-5.45s-.14-4.42-1.37-6.23c-.95-1.4-2.4-2.54-4.08-2.75"></path><path class="cls-5" d="M69.4,64.66c-3.51-.92-7.44,.59-9.6,3.46-2.19,2.91-2.29,7.23-.53,10.37,1.95,3.47,6.34,4.48,9.96,3.31s6.53-4.22,6.98-8.05-1.85-8.64-6.08-9.26c-.7-.1-1.53,.02-2.05,.55-.4,.4-.36,1.03,.3,1.13,2.87,.42,4.58,3.39,4.92,6.05,.35,2.78-.88,5.8-3.25,7.35-2.35,1.54-5.42,1.05-7.26-1.06s-2.25-5.61-1.33-8.27c.89-2.59,3.38-4.64,6.2-3.9,.66,.17,1.57-.06,2.05-.55,.44-.45,.32-.97-.3-1.13h0Z"></path></g><g><path class="cls-5" d="M49.67,98.34c2.12-4.54,5.13-8.8,9.33-11.53,4.2-2.73,9.71-3.74,14.33-1.8,2.04,.86,3.82,2.23,5.44,3.74,2.07,1.92,3.94,4.1,5.12,6.66,.15,.32,.29,.66,.29,1.02,0,.34-.13,.66-.27,.97-1.52,3.3-4.76,5.57-8.23,6.62s-7.18,1.01-10.8,.69c-2.87-.25-5.74-.68-8.43-1.7-2.69-1.02-5.19-2.68-6.85-5.03"></path><path class="cls-5" d="M51.11,98.12c2.12-4.47,5.11-8.87,9.45-11.44,4.72-2.79,10.22-2.53,14.63,.73,2.01,1.48,3.87,3.3,5.38,5.29,.76,1.01,1.63,2.21,2.02,3.43,.39,1.2-.55,2.47-1.26,3.38-3.4,4.35-9.01,4.97-14.16,4.64-5.95-.38-12.45-1.56-16.2-6.69-.47-.65-3.27,.29-2.71,1.05,3.91,5.34,10.89,6.59,17.08,6.99,6.01,.39,12.62-.35,17.25-4.59,.97-.89,1.79-1.91,2.43-3.06,.85-1.53,.59-2.45-.25-3.95-1.47-2.61-3.58-4.86-5.88-6.77s-5.06-3.34-8.13-3.7c-3.04-.36-6.18,.17-9.02,1.27-6.34,2.46-10.67,7.88-13.5,13.87-.3,.64,2.49,.38,2.88-.44h0Z"></path></g></g><g id="text"><path class="cls-5" d="M23.73,120.64c15.5,.26,31.01,.37,46.51,.34,.62,0,1.61-.18,1.9-.83,.27-.59-.23-1-.82-1-15.5,.03-31.01-.08-46.51-.34-.62-.01-1.62,.19-1.9,.83-.27,.6,.23,.99,.82,1h0Z"></path><path class="cls-5" d="M77.09,120.95c10.53,.31,21.06-.58,31.6-.38,.65,.01,1.59-.19,1.9-.85,.28-.61-.24-1.06-.84-1.07-10.54-.21-21.07,.69-31.6,.38-.64-.02-1.6,.19-1.9,.85-.28,.61,.24,1.05,.84,1.07h0Z"></path><path class="cls-5" d="M23.27,130.14c9.86,.78,19.76-.21,29.63,.18,.53,.02,1.64-.22,1.93-.74,.31-.57-.26-.64-.73-.66-9.66-.38-19.35,.61-28.99-.16-.64-.05-1.56,.08-2.05,.55-.37,.36-.44,.78,.22,.83h0Z"></path><path class="cls-5" d="M60.43,130.69c5.99,.03,11.99,.08,17.98,.15,.63,0,1.53-.49,1.59-1.18,.08-.76-.77-.96-1.34-.96-5.99-.06-11.99-.11-17.98-.15-.63,0-1.53,.49-1.59,1.18-.08,.76,.77,.96,1.34,.96h0Z"></path><path class="cls-5" d="M85.83,130.85c7.96,.12,15.91,.14,23.87,.07,1.67-.01,2.21-2.18,.25-2.16-7.96,.07-15.91,.04-23.87-.07-1.67-.02-2.21,2.13-.25,2.16h0Z"></path><path class="cls-5" d="M22.42,139.55c1.27,.25,2.61,.16,3.9,.16,1.4,0,2.8,0,4.2,0,2.91,0,5.82,0,8.73,0,.64,0,1.57-.19,1.91-.82,.31-.58-.27-.95-.81-.95-2.8,0-5.6,0-8.4,0-1.4,0-2.8,0-4.2,0-1.15,0-2.43,.15-3.57-.07-.68-.13-1.55,.04-2.05,.55-.41,.43-.35,1,.3,1.12h0Z"></path><path class="cls-5" d="M47.6,139.53c2.92,.51,6.02,.22,8.97,.2,3.37-.02,6.74-.05,10.12-.07,6.74-.05,13.49-.1,20.23-.16,.55,0,1.63-.21,1.92-.75s-.25-.68-.74-.68c-6.58,.05-13.16,.11-19.74,.16-3.21,.02-6.42,.05-9.62,.07s-6.31,.36-9.32-.17c-.63-.11-1.57,.11-2.05,.55-.43,.39-.38,.74,.23,.85h0Z"></path><path class="cls-5" d="M92.21,139.75c5.77,.19,11.55,.2,17.32,.05,.6-.02,1.57-.2,1.92-.76s-.3-.75-.75-.74c-5.77,.15-11.55,.14-17.32-.05-.59-.02-1.58,.22-1.92,.76-.36,.57,.31,.72,.75,.74h0Z"></path><path class="cls-5" d="M22.74,147.43c8,.42,16.05,.18,24.06,.15s16.23-.07,24.34-.1c.57,0,1.63-.2,1.92-.78s-.24-.8-.77-.8c-8.11,.03-16.23,.07-24.34,.1-8.01,.03-16.05,.27-24.06-.15-.56-.03-1.64,.22-1.92,.78-.3,.59,.25,.77,.77,.8h0Z"></path><path class="cls-5" d="M76.73,147.73c5.69,.01,11.37,.02,17.06,.04l8.41,.02c2.51,0,5.12,.2,7.62-.15,.51-.07,1.56-.36,1.64-1s-.83-.7-1.26-.64c-2.41,.34-4.95,.12-7.38,.11l-8.41-.02c-5.52-.01-11.04-.02-16.57-.04-.59,0-1.62,.19-1.91,.8s.24,.87,.79,.87h0Z"></path></g><g><path class="cls-2" d="M35.1,159.92c-2.1-1.71-5.4-1.45-7.49,.27-2.09,1.72-3,4.61-2.73,7.3,.29,2.85,1.9,5.62,4.42,7,2.52,1.38,5.9,1.17,8.04-.75,1.01-.91,1.71-2.13,2.19-3.41,.62-1.64,.91-3.45,.47-5.14s-1.72-3.23-3.41-3.65"></path><path class="cls-2" d="M36.46,159.42c-2.89-2.25-7.52-1.37-10.17,.86-2.67,2.24-3.48,6.12-2.5,9.39,1.01,3.37,3.78,5.93,7.31,6.3,3.76,.4,7.65-1.35,9.38-4.77,.97-1.91,1.53-4.28,.97-6.4-.48-1.83-1.85-3.34-3.68-3.86-.64-.18-1.46,.06-2.03,.35-.27,.14-.98,.65-.33,.83,3.12,.88,3.78,4.59,3.06,7.32-.6,2.27-2.07,5.25-4.78,5.3-2.8,.05-5.23-1.96-6.42-4.38-1.22-2.47-1.34-5.45-.13-7.95,.57-1.19,1.57-2.5,2.9-2.9s2.7,.14,3.7,.92c.46,.36,1.4,.05,1.88-.12,.2-.08,1.28-.55,.85-.89h0Z"></path></g><g><path class="cls-2" d="M35.99,185.05c-1.91-1.54-4.82-1.48-6.9-.17s-3.34,3.68-3.68,6.11c-.35,2.51,.25,5.2,1.88,7.15,2.83,3.39,8.67,3.6,11.74,.42,3.07-3.18,2.66-9.01-.83-11.72"></path><path class="cls-2" d="M37.33,184.47c-3.28-2.53-8.28-1.56-10.95,1.44s-3.31,7.44-1.58,10.99c1.64,3.35,5.09,4.95,8.72,4.79s7.02-2.09,8.4-5.46c1.38-3.37,.53-7.65-2.37-9.97-.54-.43-1.33-.34-1.93-.08-.31,.14-1.29,.81-.75,1.25,2.11,1.69,3.07,4.45,2.69,7.11-.18,1.26-.64,2.5-1.46,3.48s-1.79,1.47-2.8,1.75c-.95,.26-2.23,.22-3.34-.09-1.23-.34-2.36-1.02-3.21-1.98-2.14-2.43-2.5-6.18-1.29-9.12,.59-1.42,1.63-2.89,3.1-3.49,1.33-.55,2.94-.33,4.08,.55,.55,.42,1.32,.35,1.93,.08,.3-.13,1.3-.82,.75-1.25h0Z"></path></g><g><path class="cls-2" d="M35.82,210.71c-1.59-1.91-4.76-1.31-6.71,.23-2.11,1.67-3.5,4.24-3.73,6.92-.3,3.38,1.35,6.94,4.28,8.64,2.93,1.7,7.03,1.28,9.35-1.2,1.78-1.91,2.36-4.68,2.19-7.29-.17-2.55-.99-5.05-2.36-7.2"></path><path class="cls-2" d="M37.27,210.33c-1.15-1.29-2.8-1.49-4.44-1.26-1.95,.27-3.91,1.03-5.4,2.34-2.81,2.47-4.19,6.41-3.22,10.07,.92,3.47,3.76,6.2,7.39,6.56,3.71,.37,8.12-1.13,9.95-4.57,2.15-4.05,1.07-9.31-1.26-13.03-.41-.65-3.08,.49-2.9,.78,1.78,2.84,2.73,6.31,2.29,9.66-.32,2.45-1.85,5.87-4.69,6.11s-5.65-1.63-7.02-4.14c-1.49-2.71-1.54-5.99-.17-8.76,1.11-2.24,4.1-5.77,6.57-2.98,.32,.36,1.16,.1,1.55,0,.11-.03,1.56-.53,1.35-.77h0Z"></path></g><path class="cls-5" d="M52.54,172.16c2.11-3.27,4.79-6.13,7.94-8.42l-2.48,.44c1.08,1.41,.1,3.38,.48,4.96,.44,1.85,2.36,2.03,3.93,1.66,4.27-.99,6.81-5.71,8.43-9.41-.96,.21-1.92,.42-2.88,.63,.92,2.36-.43,4.69-.16,7.09,.22,1.92,1.42,3.32,3.44,3.27,5.13-.13,7.45-5.78,7.71-10.16,.03-.57-2.68,.04-2.88,.63-.65,2-1.37,4.28-.4,6.3,.84,1.74,2.53,2.4,4.38,2.14s3.61-1.12,4.7-2.63c1.32-1.83,1.33-4.23,1.35-6.39,0-.51-2.89-.09-2.9,.78-.04,3,.52,5.92,1.66,8.69,.33,.81,2.57-.17,2.88-.63,2.38-3.49,3.99-7.38,4.76-11.53l-2.88,.63c1.21,2.4,.27,5.17,1.27,7.62,.89,2.19,2.89,2.87,5.09,2.28,2.12-.57,3.61-2.18,4.23-4.26,.74-2.45,.18-5.41,2.12-7.39-.92,.16-1.84,.32-2.77,.48-.25,3.96,.54,7.84,2.31,11.38,.37,.74,2.37-.1,2.77-.48,1.44-1.37,2.52-2.99,3.23-4.84-.79,.29-1.58,.57-2.36,.86,.64,.03,.93,.75,.83,1.29-.13,.72,2.73,.25,2.86-.49,.22-1.23-.65-1.98-1.83-2.03-.6-.03-2.1,.17-2.36,.86-.66,1.75-1.64,3.25-3,4.54,.92-.16,1.84-.32,2.77-.48-1.77-3.55-2.56-7.43-2.31-11.38,.04-.7-2.53,.24-2.77,.48-2.76,2.83-.91,7.54-3.78,10.24-.12,.12-.25,.23-.39,.32,.5-.07,.5-.14,0-.19-.36-.31-.77-.42-1.09-.8-.61-.72-.92-1.71-1.06-2.63-.33-2.08,.12-4.19-.86-6.14-.32-.64-2.76,0-2.88,.63-.78,4.15-2.39,8.04-4.76,11.53,.96-.21,1.92-.42,2.88-.63-1.14-2.78-1.69-5.69-1.66-8.69l-2.9,.78c0,1.47-.01,2.98-.46,4.39-.33,1.02-1.26,3.05-2.59,2.52-3.02-1.2-1.95-5.34-1.21-7.6-.96,.21-1.92,.42-2.88,.63-.11,1.92-.6,3.79-1.49,5.5-.4,.77-.85,1.52-1.47,2.13-.25,.25-.52,.47-.75,.45-.34-.03-.72-.45-.92-.7-2.06-2.6,.56-6.24-.57-9.13-.29-.74-2.65,.1-2.88,.63-.71,1.62-1.54,3.18-2.55,4.64-.5,.72-1.02,1.43-1.61,2.08-.26,.29-.54,.55-.85,.79-.17,.14-.36,.26-.55,.37,.19-.02,.16-.06-.08-.12-1.23-.49-1.06-2.17-.99-3.22,.08-1.19,.15-2.25-.61-3.24-.4-.52-2.1,.16-2.48,.44-3.4,2.48-6.28,5.51-8.57,9.05-.3,.46,1.04,.34,1.17,.32,.56-.09,1.36-.3,1.69-.81h0Z"></path><path class="cls-5" d="M49.56,195.29c-.34,1.89,.03,4.43,2.41,4.5,3.2,.09,4.23-3.63,5.35-5.95,.72-1.49,1.38-3.04,2.18-4.49,.25-.46,.7-1.37,1.23-1.57,.16-.06,.07-.11,.3,.15,.21,.24,.29,.55,.35,.86,.28,1.42-.15,3.06-.3,4.48-.19,1.72-.38,3.45-.56,5.17-.05,.43,.26,.62,.6,.76,2.61,1.09,4.29-1.81,5.43-3.6,1.67-2.62,3.33-5.25,5-7.87-.94,0-1.89,.02-2.83,.03-.26,1.64-.52,3.27-.77,4.91-.24,1.52-.65,3.11-.66,4.66-.01,2.56,2.26,3.56,4.49,2.7,2.42-.93,3.66-3.24,4.64-5.48,1.24-2.82,2.04-5.8,2.39-8.85,.16-1.42-2.63-.79-2.92,.28-.86,3.16-2.67,10.8,2.72,10.99s7.75-6.58,7.81-10.84c.02-1.32-2.49-.9-2.83,.03-1.07,2.95-3.74,12.87,2.24,12.37,5.12-.43,7.4-7.28,8.09-11.49,.22-1.34-2.7-.88-2.92,.28-.53,2.72-1.33,12.54,4.12,9.62,.83-.45,1.5-1.19,1.93-2.02s.52-1.76,1.01-2.54c.09-.14,.6-.68,.04-.35-.36,.21-.13,.18,.21,.46,.56,.46,1.09,.96,1.63,1.43,1.09,.96,2.17,1.91,3.26,2.87,.54,.47,1.32,.43,1.95,.14,.36-.17,1.26-.89,.72-1.36-1.81-1.59-3.56-3.43-5.52-4.84-1.49-1.07-3.48-.54-4.6,.81-.53,.65-.84,1.41-1.1,2.2-.15,.44-.26,.87-.52,1.27-.06,.11-.13,.21-.22,.29-.18,.18-.17,.19,.03,.04,.17-.04,.2-.13,.1-.26-.04-.1-.07-.2-.09-.31-.14-1.29-.43-2.5-.44-3.81s.14-2.62,.39-3.91c-.97,.09-1.95,.18-2.92,.28-.31,1.9-.85,3.74-1.7,5.47-.37,.77-.78,1.54-1.27,2.24-.32,.46-1.09,1.51-1.7,1.55-1.58,.09-1.29-3.33-1.23-4.26,.13-2.02,.54-4.03,1.23-5.93-.94,0-1.89,.02-2.83,.03-.02,1.88-.38,3.72-1.19,5.41-.45,.95-1.9,3.83-3.33,3.04-1.12-.62-1.19-2.46-1.14-3.55,.09-1.9,.48-3.79,.98-5.62-.97,.09-1.95,.18-2.92,.28-.26,2.28-.75,4.54-1.54,6.69-.63,1.72-1.37,3.89-2.73,5.17-.64,.61-1,.83-1.33-.2-.27-.84,.06-1.95,.19-2.8,.39-2.46,.77-4.91,1.16-7.37,.23-1.45-2.41-.64-2.83,.03-1.1,1.73-2.19,3.45-3.29,5.18-.53,.83-1.05,1.66-1.58,2.49-.26,.41-.53,.83-.79,1.24-.13,.21-.26,.41-.39,.62-.38,.3-.35,.42,.08,.37l.6,.76c.19-1.72,.38-3.45,.56-5.17,.16-1.43,.45-2.91,.35-4.35-.19-2.73-2.89-3.56-5.09-2.27-2.55,1.49-3.57,4.95-4.78,7.46-.35,.73-.71,1.47-1.06,2.2-.19,.4-.37,.81-.58,1.19-.19,.35-.57,.5-.15,.64,.54,.18,.02-.18-.03-.31-.08-.26-.19-.51-.23-.78-.1-.59-.05-1.18,.06-1.77,.24-1.32-2.71-.9-2.92,.28h0Z"></path><path class="cls-5" d="M50.07,219.15c-.26,1.29-.37,3.12,.65,4.14,1.17,1.18,3.45,.56,4.58-.35,1.55-1.25,2.14-3.72,2.9-5.48,1.05-2.43,2.09-4.87,3.14-7.3l-2.61,.86c1.84,.48,1.1,3.82,.99,5.11-.21,2.51-.41,5.01-.62,7.52-.09,1.09,2.44,.25,2.77-.24,2.89-4.2,5.78-8.4,8.67-12.6-.92,.08-1.85,.16-2.77,.24-.47,1.62-.87,3.25-1.19,4.9-.28,1.46-.67,3.04-.65,4.53,.03,2.6,2.79,2.67,4.7,2.09,4.92-1.5,6.85-7.65,5.38-12.2-.32-.98-2.59,.02-2.89,.6-1.23,2.37-2,4.94-2.17,7.6-.12,1.88-.08,4.36,1.89,5.31,1.77,.84,4.09,.13,5.62-.91,2.07-1.4,2.78-3.85,4.23-5.77-.92,.08-1.85,.16-2.77,.24-.33,1.87-.02,3.64,1.01,5.25,.47,.74,2.39,.24,2.78-.41,1.83-3.01,3.66-6.03,5.5-9.04-.93,.14-1.86,.28-2.78,.41,.68,3.97,.89,7.99,.62,12.01-.08,1.14,2.56,.21,2.88-.42,2.27-4.43,4.55-8.86,6.82-13.3-.93,.25-1.86,.5-2.79,.75,1.94,1.65,1.09,4.35,.8,6.49-.26,1.94-.12,4.8,2.54,4.45,2.19-.29,3.6-2.36,4.56-4.16,1.12-2.09,1.57-4.42,1.45-6.77-.04-.84-2.72-.09-2.89,.6-.58,2.34-.76,5.05,.82,7.05,1.42,1.8,3.67,2.22,5.81,1.68,.36-.09,1.43-.46,1.28-1s-1.29-.31-1.61-.23c-1.44,.37-2.96-1.55-3.4-2.67-.66-1.7-.44-3.54-.02-5.26-.96,.2-1.93,.4-2.89,.6,.1,1.91-.24,3.79-1.01,5.54-.34,.77-.76,1.5-1.26,2.18-.09,.13-1.11,1.24-1.09,1.27l1-.45c-.17-.23-.29-.48-.36-.76-.94-3.14,2.02-7.05-1.03-9.64-.69-.59-2.42,.02-2.79,.75-2.27,4.43-4.55,8.86-6.82,13.3l2.88-.42c.28-4.14,.09-8.27-.61-12.36-.15-.88-2.5-.05-2.78,.41-1.83,3.01-3.66,6.03-5.5,9.04,.93-.14,1.86-.28,2.78-.41-.95-1.49-1.33-3.15-1.02-4.9,.19-1.09-2.45-.2-2.77,.24-1.05,1.39-1.67,3.05-2.75,4.41-.43,.54-1.05,1.25-1.8,1.05s-1.22-1.04-1.43-1.72c-.99-3.3,.44-7.53,1.96-10.45-.96,.2-1.93,.4-2.89,.6,.61,1.88,.68,3.84,.13,5.74-.44,1.51-1.35,3.56-2.81,4.35-1.98,1.08-1.47-2.64-1.33-3.59,.37-2.38,.9-4.72,1.57-7.03,.29-1-2.45-.23-2.77,.24-2.89,4.2-5.78,8.4-8.67,12.6l2.77-.24c.24-2.99,.49-5.98,.73-8.98,.13-1.6,.33-4.01-1.66-4.52-.77-.2-2.25,.01-2.61,.86-1.33,3.1-2.66,6.2-3.99,9.29-.28,.64-.51,1.32-.85,1.93l-.24,.4c-.29,.26-.28,.33,.02,.22,.28,0,.29-.07,.04-.2l-.19-.25c-.58-.9-.47-2.25-.28-3.24,.18-.93-2.71-.45-2.88,.42h0Z"></path></g><g id="suitcase"><g><path class="cls-5" d="M390.97,155.93c-.37-8.54-1.11-17.88-6.24-24-5.37-6.41-13.83-7.27-21.51-7.75-3.31-.2-232.41-.2-235.72,0-7.68,.48-16.14,1.34-21.51,7.75-5.13,6.12-5.87,15.46-6.24,24-1.91,43.9-1.59,90.59,.68,134.46,.44,8.59,1.16,17.76,5.8,24.46,6.7,9.67,18.84,10.65,29.52,10.83,13.89,.24,205.35,.24,219.24,0,10.68-.18,22.82-1.16,29.52-10.83,4.64-6.7,5.35-15.87,5.8-24.46,2.27-43.87,2.59-90.57,.68-134.46Z"></path><path class="cls-1" d="M395.39,155.65c-.27-6.16-.57-12.56-2.69-18.4-2.15-5.91-6.08-10.49-11.81-13.15-5.61-2.61-12.22-3.22-18.35-3.29-5.57-.06-11.14-.05-16.71-.06-10.73-.02-21.47-.03-32.2-.04-13.9-.01-27.8-.02-41.7-.02-15.11,0-30.22,0-45.33,0-14.26,0-28.52,0-42.78,.02-11.36,0-22.72,.02-34.07,.04-6.5,.01-13,.02-19.5,.06-2.87,.02-5.71,.2-8.56,.58-6.11,.81-12.41,2.53-17.07,6.8-4.77,4.37-7.09,10.25-8.2,16.5s-1.14,12.82-1.38,19.21c-.27,7.21-.48,14.42-.63,21.63-.3,14.43-.38,28.86-.25,43.29,.13,14.39,.47,28.77,1.02,43.15,.27,6.97,.55,13.95,.96,20.92,.38,6.29,.88,12.8,3.33,18.68s6.41,10.22,11.95,13.12c4.76,2.48,10.21,3.54,15.51,3.99,4.22,.36,8.46,.39,12.69,.41,8.67,.06,17.34,.07,26.02,.08,13.55,.03,27.1,.04,40.66,.05,15.77,.01,31.54,.01,47.31,.01,15.33,0,30.67,0,46-.02,12.12-.01,24.25-.03,36.37-.06,6.18-.02,12.37,0,18.55-.09,10.93-.17,22.74-1.49,30.9-9.54,9.35-9.22,9.05-23.78,9.62-35.96,1.35-28.82,1.85-57.69,1.49-86.55-.17-13.79-.54-27.57-1.14-41.34-.09-2.14-2.03-3.27-4.08-3.07-1.7,.16-4.85,1.42-4.76,3.64,1.23,28.31,1.52,56.66,1.02,84.99-.25,14.12-.69,28.24-1.35,42.35-.3,6.44-.41,12.98-1.54,19.34-.5,2.83-1.28,5.58-2.52,8.17-.56,1.17-1.1,2.09-1.85,3.08-.43,.57-.88,1.11-1.37,1.64-.19,.2-.38,.41-.58,.6,.47-.45-.47,.39-.46,.39-.51,.44-1.05,.85-1.6,1.24-.22,.15-.44,.3-.67,.45,.63-.41,.05-.04-.07,.03-1.18,.63-2.36,1.24-3.62,1.71,.83-.31,.16-.06-.01-.01-.39,.12-.77,.25-1.16,.37-.52,.15-1.04,.3-1.57,.43-.66,.16-1.33,.31-2,.44-.27,.05-.54,.1-.81,.15,.99-.18-.35,.05-.44,.06-3.71,.52-7.47,.66-11.22,.71-2.37,.03-4.74,.04-7.11,.05-9.61,.04-19.22,.06-28.83,.07-13.94,.02-27.87,.03-41.81,.04-15.67,0-31.34,0-47,0-14.81,0-29.61-.01-44.42-.03-11.32-.01-22.64-.03-33.96-.06-3.58-.01-7.16-.02-10.74-.04-1.12,0-2.24-.01-3.37-.03-2.34-.02-3.76-.05-5.8-.18-2.61-.16-5.21-.44-7.78-.95-1.54-.31-1.55-.3-2.93-.74-1.28-.4-2.53-.89-3.74-1.47-.61-.29-1.68-.92-2.6-1.57-1.01-.72-2.04-1.59-2.73-2.36-1.84-2.03-3.25-4.38-4.2-6.94-2.1-5.67-2.56-11.79-2.87-17.78-.37-6.97-.67-13.94-.93-20.91-1.05-28.34-1.3-56.7-.69-85.05,.15-7.03,.36-14.05,.62-21.07,.24-6.32,.26-12.74,1.34-18.98,.47-2.7,1.18-5.33,2.39-7.8,1.11-2.27,2.56-4.03,4.54-5.45-.08,.05,1.08-.71,.59-.4s.71-.38,.62-.34c.56-.3,1.13-.56,1.72-.81,.2-.09,1.07-.38,.26-.11,.27-.09,.53-.18,.8-.27,.68-.21,1.36-.4,2.05-.56s1.4-.31,2.1-.43c-.84,.15,.66-.09,.94-.12,1.42-.18,2.84-.31,4.27-.41,4.21-.3,8.46-.17,12.68-.18,9.28-.03,18.56-.04,27.84-.05,12.96-.01,25.92-.02,38.88-.03,14.71,0,29.43,0,44.14,0,14.54,0,29.08,0,43.63,.01,12.45,0,24.89,.02,37.34,.03,8.42,.01,16.85,.02,25.27,.05,2.1,0,4.2,.01,6.31,.03,.41,0,.83,.02,1.25,.02-2.39,.02-.35,0,.23,.05,1.35,.09,2.7,.21,4.05,.36,2.88,.34,4.82,.67,7.31,1.61,2.13,.8,4.1,1.91,5.79,3.66,1.74,1.8,2.99,4.03,3.84,6.36,1.93,5.31,2.31,11.04,2.55,16.64,.09,2.14,2.02,3.27,4.08,3.07,1.7-.16,4.85-1.42,4.76-3.64Z"></path></g><g><path class="cls-5" d="M390.97,155.93c-.37-8.54-1.11-17.88-6.24-24-5.37-6.41-13.83-7.27-21.51-7.75-3.31-.2-232.41-.2-235.72,0-7.68,.48-16.14,1.34-21.51,7.75-5.13,6.12-5.87,15.46-6.24,24-1.91,43.9-1.59,90.59,.68,134.46,.44,8.59,1.16,17.76,5.8,24.46,6.7,9.67,18.84,10.65,29.52,10.83,13.89,.24,205.35,.24,219.24,0,10.68-.18,22.82-1.16,29.52-10.83,4.64-6.7,5.35-15.87,5.8-24.46,2.27-43.87,2.59-90.57,.68-134.46Z"></path><path class="cls-5" d="M392.42,155.55c-.5-11.21-1.85-24.52-13.64-29.46-5.01-2.1-10.73-2.73-16.13-2.79-5.65-.06-11.3-.05-16.95-.06-10.79-.02-21.57-.03-32.36-.04-13.93-.01-27.85-.02-41.78-.02-15.11,0-30.23,0-45.34,0-14.24,0-28.47,0-42.71,.02-11.31,0-22.62,.02-33.92,.04-6.42,.01-12.85,.01-19.27,.06-3.09,.02-6.16,.22-9.22,.65-5.32,.75-10.7,2.38-14.73,6.1-4.21,3.88-6.15,9.47-7.07,14.99-1.06,6.35-1.09,12.88-1.32,19.3-.27,7.21-.47,14.42-.62,21.64-.3,14.43-.37,28.86-.23,43.3,.14,14.27,.47,28.54,1.02,42.8,.27,6.97,.55,13.95,.96,20.92,.37,6.15,.95,12.51,3.44,18.22,2.2,5.04,5.97,9.08,10.91,11.5,4.59,2.25,9.73,3.14,14.8,3.54,3.78,.3,7.57,.32,11.36,.34,8.75,.05,17.51,.07,26.26,.08,13.6,.02,27.2,.04,40.79,.05,15.78,0,31.56,.01,47.34,.01,15.31,0,30.62,0,45.93-.02,12.06-.01,24.13-.03,36.19-.06,6.09-.02,12.18,0,18.26-.09,9.98-.16,21.34-1.01,28.82-8.48,8.93-8.91,8.34-23.31,8.89-34.97,1.34-28.83,1.83-57.7,1.46-86.56-.17-13.67-.55-27.34-1.14-41-.04-1-2.95-.4-2.9,.78,1.23,28.42,1.52,56.88,1.01,85.33-.25,14.12-.71,28.24-1.37,42.34-.54,11.49,.13,26.44-9.51,34.65-6.72,5.73-16.42,6.08-24.82,6.19-2.42,.03-4.84,.04-7.26,.05-9.68,.04-19.36,.06-29.05,.07-13.97,.02-27.95,.03-41.92,.04-15.67,0-31.35,0-47.02,0-14.78,0-29.55-.01-44.33-.03-11.26-.01-22.52-.03-33.77-.06-7.01-.02-14.09,.15-21.09-.31-5.19-.35-10.51-1.18-15.17-3.61-5.09-2.65-8.64-7.12-10.54-12.5-2.06-5.82-2.46-12.1-2.78-18.22-.37-6.97-.67-13.94-.93-20.91-1.06-28.45-1.3-56.93-.67-85.39,.15-7.02,.36-14.04,.63-21.06,.24-6.29,.27-12.68,1.4-18.89,1.03-5.66,3.22-11.44,8.15-14.81,4.54-3.1,10.24-3.7,15.59-4.07,.11,0,1.95-.1,.98-.07,.07,0,.13,0,.2,0,.21,0,.42,0,.64,0,.75,0,1.5-.01,2.25-.02,2.7-.02,5.39-.02,8.09-.03,9.34-.03,18.68-.04,28.02-.05,12.99-.01,25.99-.02,38.98-.03,14.72,0,29.45,0,44.17,0,14.53,0,29.05,0,43.58,.01,12.4,0,24.81,.02,37.21,.03,8.36,.01,16.72,.02,25.07,.05,7.09,.03,14.59-.25,21.24,2.54,11.44,4.8,12.55,17.96,13.03,28.78,.04,1,2.95,.4,2.9-.78Z"></path></g><path class="cls-1" d="M119.29,138.46c9.23,25.56,23.42,48.97,39.32,70.9,8,11.02,16.45,21.71,25.03,32.29,4.22,5.21,8.47,10.4,12.74,15.56,4.32,5.23,8.73,10.4,13.58,15.16,8.62,8.46,18.76,15.44,30.6,18.41,5.38,1.35,11.05,1.82,16.52,.69,6.25-1.29,10.91-5.27,15.82-9.08,11.15-8.64,21.62-17.92,31.12-28.36,8.92-9.8,17.26-20.13,24.97-30.92,15.43-21.6,28.29-45.02,38.24-69.63,1.23-3.05,2.42-6.12,3.56-9.2,.39-1.05-2.52-.71-2.91,.32-9.07,24.46-21.03,47.84-35.52,69.54-14.71,22.03-31.87,42.96-52.26,59.98-2.73,2.28-5.51,4.51-8.32,6.7-2.68,2.09-5.34,4.29-8.16,6.18-4.45,2.98-9.88,3.65-15.11,3.17-11.63-1.06-22.44-7.11-31.14-14.61-9.96-8.59-18.06-19.17-26.35-29.31-8.43-10.32-16.79-20.7-24.79-31.36-15.9-21.21-30.47-43.67-40.6-68.25-1.22-2.96-2.37-5.95-3.46-8.96-.4-1.1-3.27-.27-2.9,.78h0Z"></path><path class="cls-1" d="M245.97,251.47c-2.62-1.08-4.76,1.44-5.5,3.65-.65,1.93-.75,3.97-.37,5.97,.78,4.06,3.63,7.75,7.57,9.15s8.94,.33,12.33-2.33c3.64-2.87,5.44-7.44,4.25-12-1.5-5.73-7.23-8.91-12.91-7.81-.58,.11-1.35,.7-1.19,1.37,.18,.73,1.16,.7,1.71,.59,3.78-.73,7.61,1.81,9.03,5.26,1.39,3.38,.91,7.28-1.52,10.05-2,2.28-5.11,3.68-8.16,3.35-3.2-.35-5.83-2.61-7.23-5.44-.77-1.54-1.21-3.33-1.18-5.05,.01-.86,.12-1.74,.36-2.58,.13-.45,.3-.9,.51-1.32,.09-.18,.18-.36,.3-.52,.09-.13,.19-.26,.31-.37,.29-.21,.29-.23,.01-.05,1.21,.5,3.37-1.24,1.68-1.94h0Z"></path><g><path class="cls-5" d="M297.04,80.35c-.58-1.31-1.21-2.68-2.38-3.5-1.12-.79-2.54-.97-3.9-1.12-13.17-1.45-77.64-1.45-90.81,0-1.36,.15-2.79,.32-3.9,1.12-1.17,.83-1.8,2.2-2.38,3.5-7.4,16.76-13.31,34.17-17.64,51.97,6.96-2.11,14.35-2.76,21.57-1.9,1.67-11.27,4.04-22.43,7.1-33.4,.51-1.83,1.1-3.75,2.53-5,1.28-1.12,3.02-1.51,4.68-1.84,11.01-2.19,55.88-2.19,66.89,0,1.66,.33,3.41,.72,4.68,1.84,1.43,1.25,2.02,3.17,2.53,5,3.06,10.97,5.43,22.14,7.1,33.4,7.22-.86,14.61-.21,21.57,1.9-4.33-17.8-10.24-35.22-17.64-51.97Z"></path><path class="cls-5" d="M298.49,79.96c-.68-1.53-1.42-3.1-2.88-4.03-1.34-.86-2.99-1.06-4.55-1.22-1.21-.13-2.43-.21-3.65-.28-3.6-.22-7.2-.33-10.8-.43-10.12-.27-20.24-.35-30.36-.35-10.18,0-20.36,.07-30.54,.33-3.73,.1-7.46,.21-11.19,.42-4.08,.23-9.01,.11-11.36,4.06-1.01,1.7-1.7,3.64-2.47,5.46-.84,1.96-1.65,3.93-2.45,5.91-1.59,3.96-3.1,7.95-4.52,11.96-2.86,8.05-5.39,16.21-7.58,24.47-.55,2.06-1.07,4.13-1.58,6.2-.22,.89,1.24,.95,1.71,.8,6.76-2.02,13.8-2.64,20.8-1.83,.69,.08,1.86-.31,1.98-1.13,1.07-7.14,2.4-14.24,4.02-21.28,.79-3.44,1.65-6.86,2.57-10.27,.81-2.99,1.38-6.31,4.77-7.24,2.58-.71,5.49-.94,8.46-1.17,3.83-.3,7.68-.46,11.52-.58,8.97-.28,17.95-.29,26.93-.07,6.73,.17,13.65,.22,20.31,1.37,1.13,.19,2.3,.41,3.35,.89,1.7,.77,2.56,2.28,3.13,3.99,1.22,3.66,2.07,7.5,2.97,11.25,1.87,7.8,3.39,15.68,4.57,23.62,.08,.52,.9,.66,1.3,.61,7.02-.81,14.09-.19,20.86,1.83,.75,.22,2.57-.22,2.3-1.32-4.34-17.8-10.25-35.2-17.64-51.97-.54-1.22-3.4-.37-2.9,.78,7.39,16.77,13.29,34.17,17.64,51.97,.77-.44,1.53-.88,2.3-1.32-7.21-2.15-14.79-2.83-22.27-1.97l1.3,.61c-1.11-7.46-2.52-14.87-4.24-22.21-.84-3.59-1.75-7.17-2.74-10.73-.83-2.99-1.84-5.74-4.9-7.01-2.97-1.24-6.55-1.42-9.73-1.69-3.89-.32-7.8-.5-11.7-.62-9.5-.31-19.02-.32-28.53-.08-6.93,.18-14.1,.21-20.93,1.53-3.28,.63-6.22,1.88-7.62,5.12-.71,1.63-1.1,3.41-1.56,5.12-.54,2.01-1.06,4.03-1.56,6.06-2.02,8.26-3.65,16.61-4.91,25.02l1.98-1.13c-7.5-.86-15.1-.19-22.33,1.97l1.71,.8c3.91-16.02,9.08-31.73,15.48-46.93,.78-1.84,1.53-3.7,2.39-5.5,.37-.78,.78-1.62,1.46-2.18,.77-.63,1.82-.73,2.77-.84,1.15-.13,2.3-.22,3.45-.29,3.33-.22,6.68-.33,10.02-.43,9.51-.28,19.02-.37,28.54-.39,9.98-.02,19.95,.04,29.93,.25,3.88,.08,7.76,.19,11.64,.36,2.85,.13,5.99,.06,8.78,.72,1.98,.47,2.86,2.01,3.64,3.76,.54,1.22,3.41,.37,2.9-.78Z"></path></g></g><g id="aed-in"><g><rect class="cls-2" x="55.43" y="290.14" width="151.78" height="151.78" rx="10.07" ry="10.07"></rect><path class="cls-2" d="M64.97,442.88H195.21c.46,0,.91,0,1.37,0,3.86-.02,7.58-1.65,9.92-4.79,1.99-2.67,2.17-5.57,2.17-8.69v-9.22c0-11.05,0-22.09,0-33.14v-84.13c0-2.37,.15-4.77-.8-7.01-1.73-4.1-5.79-6.66-10.21-6.73-.38,0-.75,0-1.13,0h-7.72c-10.45,0-20.9,0-31.35,0-13.5,0-27,0-40.51,0-11.73,0-23.46,0-35.19,0-5.24,0-10.48-.03-15.72,0-6.46,.03-12.06,4.84-12.08,11.47,0,1.98,0,3.96,0,5.94v29.15c0,13.38,0,26.76,0,40.14v36.74c0,6.3-.01,12.61,0,18.91,.01,6.25,4.65,11.24,11.01,11.35,.65,.01,1.59-.19,1.9-.85,.28-.6-.24-1.06-.84-1.07-4.73-.08-8.65-3.75-9.1-8.47-.05-.56-.04-1.13-.04-1.69v-77.34c0-11.82,0-23.65,0-35.47,0-5.89-.03-11.78,0-17.67,.02-4.83,3.36-9.15,8.34-9.22,1.88-.03,3.77,0,5.66,0,9.42,0,18.84,0,28.26,0,13.13,0,26.26,0,39.38,0h57.15c.48,0,.97,0,1.45,.01,4.65,.24,8.34,4.22,8.61,8.8,.08,1.4,.01,2.82,.01,4.22v125.69c0,3.17-.18,6.21-2.57,8.68-2.27,2.34-4.89,2.46-7.82,2.46-7.81,0-15.63,0-23.44,0H66.03c-.65,0-1.59,.18-1.9,.85-.27,.6,.24,1.07,.84,1.07Z"></path></g><g class="cls-3"><path class="cls-1" d="M162.74,294.49c-32.83,25.48-64.21,52.84-93.93,81.88-2.28,2.23-4.6,4.54-5.87,7.47-1.22,2.82-1.36,5.97-1.41,9.04-.19,10.43,.33,20.87,1.54,31.23,.29,2.47,.7,5.12,2.42,6.92,2.13,2.23,5.55,2.47,8.64,2.57,11.43,.36,22.87,.71,34.3,1.07,28.66-27.11,57.32-54.21,85.98-81.32,1.89-1.79,3.81-3.61,5.1-5.87,2.08-3.63,2.34-7.98,2.55-12.16,.36-7.19,.73-14.37,1.09-21.56,.34-6.78-.13-15.09-6.17-18.2-2.14-1.1-4.62-1.29-7.03-1.41-9.14-.45-18.32-.17-27.41,.82"></path><path class="cls-1" d="M161.61,294.37c-23.44,18.21-46.15,37.36-68.05,57.4-5.57,5.1-11.1,10.26-16.56,15.47-2.62,2.5-5.23,5.01-7.82,7.54-2.39,2.32-4.94,4.6-6.71,7.46-1.74,2.81-2.21,6.02-2.34,9.27-.16,3.84-.11,7.7-.02,11.54,.18,7.54,.58,15.17,1.67,22.63,.43,2.98,1.43,5.82,4.27,7.26,2.65,1.34,5.76,1.29,8.65,1.38,7.95,.25,15.91,.5,23.86,.75,1.82,.06,3.65,.11,5.47,.17,1.57,.05,3.81,.55,5.26-.27,.73-.41,1.32-1.14,1.92-1.71,.73-.69,1.45-1.37,2.18-2.06,1.45-1.37,2.9-2.74,4.35-4.12,5.68-5.38,11.37-10.75,17.05-16.13,11.43-10.81,22.86-21.62,34.28-32.43,5.74-5.43,11.49-10.87,17.23-16.3,2.78-2.63,5.56-5.26,8.34-7.89,2.5-2.36,5.16-4.7,6.71-7.83s1.86-6.48,2.07-9.83c.23-3.68,.38-7.36,.57-11.04,.2-3.92,.4-7.84,.59-11.76,.13-2.66,.18-5.33-.13-7.99-.63-5.32-3.05-10.43-8.66-11.79-3.27-.79-6.78-.71-10.13-.78-3.92-.08-7.85-.03-11.76,.15-3.71,.17-7.42,.47-11.11,.87-.37,.04-1.66,.36-1.68,.87-.02,.57,.82,.45,1.19,.41,7.35-.79,14.76-1.11,22.15-.95,3.31,.07,7.03-.12,10.19,1.02,2.39,.86,4.21,2.7,5.3,4.96,2.29,4.75,1.92,10.36,1.67,15.47-.36,7.11-.64,14.23-1.09,21.33-.2,3.23-.59,6.56-2.04,9.5-1.55,3.14-4.35,5.47-6.85,7.83-5.32,5.03-10.64,10.06-15.96,15.1-10.76,10.18-21.53,20.36-32.29,30.54-12.09,11.44-24.19,22.87-36.28,34.31l2.25-.72c-7.79-.24-15.58-.49-23.37-.73-3.77-.12-7.54-.21-11.31-.35-2.98-.11-6.42-.38-8.33-3.01-1.91-2.63-1.88-6.49-2.2-9.59-.39-3.81-.69-7.63-.89-11.46s-.31-7.65-.32-11.49c-.01-3.59-.18-7.32,.54-10.86,.7-3.44,2.62-6.11,5.03-8.59,2.51-2.58,5.14-5.04,7.73-7.54,5.33-5.13,10.72-10.21,16.15-15.23,10.81-9.98,21.81-19.75,33.01-29.28,12.59-10.72,25.42-21.14,38.47-31.28,.48-.37,.32-.66-.21-.78-.6-.14-1.57,.18-2.05,.55h0Z"></path></g><g class="cls-3"><path class="cls-1" d="M197.21,368.72c-22.39,22.74-45.77,44.51-70.05,65.23,7.98-.32,15.95-.63,23.93-.95,1.31-.05,2.65-.11,3.84-.63,1.96-.86,3.18-2.78,4.38-4.54,9.44-13.96,23.41-24.08,35.84-35.46,1.33-1.22,2.69-2.52,3.3-4.22,.51-1.42,.44-2.96,.37-4.47-.21-4.44-.43-8.88-.64-13.33"></path><path class="cls-1" d="M196.33,368.52c-8.72,8.86-17.59,17.57-26.61,26.13-9.02,8.56-18.18,16.97-27.48,25.22-5.28,4.68-10.6,9.31-15.96,13.89-.48,.41-.05,.87,.46,.85,7.98-.32,15.95-.63,23.93-.95,1.74-.07,3.5-.18,5.08-.99,1.4-.71,2.47-1.85,3.4-3.1,2.02-2.72,3.86-5.53,6.04-8.14,8.88-10.64,20.04-19.04,30.25-28.32,1.34-1.22,2.8-2.47,3.66-4.1,.88-1.65,.9-3.47,.82-5.29-.2-4.55-.44-9.1-.66-13.65-.04-.74-2.21-.29-2.17,.58,.19,3.82,.37,7.65,.56,11.47,.09,1.77,.33,3.63-.06,5.38-.37,1.65-1.45,2.91-2.65,4.04-4.76,4.54-9.88,8.7-14.83,13.03-4.94,4.32-9.8,8.76-14.22,13.63-2.17,2.4-4.24,4.89-6.14,7.51-1.73,2.38-3.33,6.06-6.57,6.52-2.06,.29-4.21,.23-6.29,.31s-4.29,.17-6.44,.26c-4.29,.17-8.59,.34-12.88,.51l.46,.85c9.45-8.07,18.77-16.3,27.95-24.69,9.18-8.38,18.21-16.92,27.11-25.61,5.04-4.93,10.04-9.91,14.99-14.93,.33-.34,.22-.69-.22-.82-.47-.14-1.19,.06-1.53,.41h0Z"></path></g><g class="cls-3"><path class="cls-1" d="M60.72,317.41c-.11,5.92-.22,11.84-.33,17.76,11.05-15.06,28.05-24.77,39.81-39.28-4.04-.21-8.09-.43-12.13-.64-.88-.05-1.8-.09-2.6,.29-.51,.24-.93,.64-1.33,1.02-7.67,7.3-15.34,14.59-23.01,21.89"></path><path class="cls-1" d="M59.64,317.7c-.11,5.92-.22,11.84-.33,17.76,0,.43,1.97-.25,2.15-.49,8.72-11.84,20.95-20.28,31.48-30.36,2.94-2.81,5.75-5.77,8.32-8.93,.15-.19-.3-.21-.35-.21-3.31-.18-6.62-.35-9.93-.53-2.89-.15-5.57-.41-7.82,1.72-4.9,4.61-9.74,9.27-14.62,13.91-2.8,2.66-5.59,5.32-8.39,7.98-.34,.33,.31,.31,.5,.29,.44-.04,1.12-.18,1.46-.5,5.68-5.41,11.37-10.82,17.05-16.23,1.44-1.37,2.89-2.75,4.33-4.12,.61-.58,1.21-1.17,1.83-1.74,.34-.31,.58-.55,1.04-.64,.42-.08,.94,.02,1.37,.05,3.92,.2,7.84,.42,11.77,.62l-.35-.21c-9.27,11.39-21.56,19.7-31.84,30.08-2.86,2.89-5.55,5.93-7.96,9.21,.72-.16,1.43-.33,2.15-.49,.11-5.92,.22-11.84,.33-17.76,0-.26-2.16,0-2.17,.58h0Z"></path></g><g><path class="cls-1" d="M78.54,342.44c.17-.52-.69,.33-.16,.46s1.05-.39,1.58-.26c6.89,1.62,14.13,1.73,21.06,.31-.07,23.53-.14,47.07,1.43,70.55-8.19,1.42-16.59,1.66-24.85,.71-.79-24.04,2.26-47.74,.93-71.76"></path><path class="cls-1" d="M80.01,342.33l.02-.13c.04-.27-.12-.57-.35-.72l-.05-.03c-.49-.31-1.26-.29-1.76-.01-1.6,.9-1.33,2.7,.69,2.52,.33-.03,.75-.24,1.02-.25,.61-.02,1.35,.3,1.95,.41,1.31,.25,2.64,.45,3.97,.59,5.28,.56,10.59,.26,15.79-.78l-1.73-.87c-.05,18.47-.11,36.95,.63,55.41,.21,5.14,.48,10.28,.82,15.41l1.58-1.44c-8.1,1.38-16.31,1.63-24.48,.72l.96,.93c-.59-18.6,1.09-37.17,1.26-55.76,.05-5.34-.04-10.67-.33-16-.08-1.5-3-1.04-2.93,.23,1.01,18.59-.58,37.17-.98,55.75-.11,5.34-.12,10.68,.05,16.01,.02,.56,.42,.87,.96,.93,8.4,.94,16.89,.71,25.22-.7,.79-.13,1.64-.52,1.58-1.44-1.22-18.26-1.44-36.57-1.45-54.86,0-5.14,.01-10.27,.03-15.41,0-.93-1.04-1.01-1.73-.87-3.83,.77-7.76,1.07-11.67,.86-1.88-.1-3.76-.31-5.62-.62-.95-.16-1.89-.43-2.84-.57-.35-.05-.7-.07-1.05-.02-.17,.02-.35,.06-.51,.12-.66,.12-.63,.58,.08,1.39h-1.76s.03,0,.05,.02l-.35-.72-.02,.13c-.22,1.44,2.73,1.06,2.93-.23h0Z"></path></g><g><path class="cls-1" d="M116.49,328.92c7.17,.99,14.5,.77,21.6-.63-.07,2.87-.14,5.74-.21,8.61,7.19-5.79,17.56-4.46,26.64-2.83,2.93,.53,5.64,1.72,8.4,2.84,14.02,5.68,16.23,60.18,15.12,76.28-8.35,2.01-17.13,2.22-25.57,.62,.63,.34,.1-34-2.97-50-.4-2.07-.88-4.25-2.33-5.77-3.05-3.21-9.93-3.12-13.04,.04-5.8,5.88-4.72,16.5-4.51,24.75,.26,10.54,.53,21.08,.79,31.62-7.89,.37-15.81,.03-23.64-1.03,.63-26.36,.26-52.74-1.11-79.07"></path><path class="cls-1" d="M115.97,329.9c7.45,1,14.98,.73,22.36-.7l-1.71-.78c-.07,2.87-.14,5.74-.21,8.61-.03,1.17,1.79,.95,2.41,.46,4.19-3.3,9.46-4.03,14.65-3.78,5.63,.27,11.29,1.18,16.53,3.28,2.5,1,4.28,2,5.93,4.25s2.72,4.71,3.66,7.25c2.51,6.79,3.83,14.02,4.85,21.17,1.12,7.83,1.78,15.72,2.12,23.61,.29,6.67,.46,13.4,0,20.06,.41-.35,.81-.7,1.22-1.05-8.15,1.93-16.58,2.08-24.81,.55-1.02-.19-3.01,1.46-1.37,1.91,2.54,.69,2.49-1.87,2.53-3.46,.06-2.79,.01-5.58-.05-8.36-.19-8.48-.6-16.98-1.35-25.43-.36-4.05-.79-8.11-1.45-12.12-.38-2.27-.71-4.66-1.87-6.68s-3.08-3.09-5.19-3.61c-4.34-1.08-9.34,.06-12.19,3.65-3.03,3.82-3.86,8.8-4.05,13.55-.25,6.34,.22,12.75,.37,19.09,.19,7.74,.39,15.48,.58,23.22l1.61-1.12c-7.77,.35-15.55,0-23.27-1.03l.94,.85c.49-20.56,.37-41.12-.35-61.67-.2-5.8-.46-11.6-.76-17.39-.07-1.44-2.99-.92-2.92,.26,1.06,20.53,1.53,41.1,1.38,61.66-.04,5.8-.13,11.61-.27,17.41-.01,.56,.45,.79,.94,.85,7.96,1.06,15.99,1.39,24.01,1.03,.51-.02,1.63-.45,1.61-1.12-.3-11.95-.55-23.9-.93-35.85-.15-4.58-.24-9.32,.98-13.77,.57-2.08,1.51-4.12,2.95-5.75,1.3-1.47,3.06-2.14,5-2.26,1.91-.11,4.01,.34,5.52,1.57,1.89,1.54,2.32,4.16,2.74,6.42,.64,3.47,1.06,6.97,1.42,10.48,.8,7.9,1.24,15.85,1.5,23.78,.11,3.44,.19,6.87,.19,10.31,0,1.06,0,2.12-.05,3.18-.01,.33-.04,.67-.06,1-.05,.95-.23-.17,1.1-.52h1.1s0,0,0,0l-1.37,1.91c8.73,1.62,17.7,1.35,26.34-.7,.45-.11,1.18-.5,1.22-1.05,.42-6.09,.29-12.22,.07-18.31-.31-8.17-.93-16.33-2.02-24.43-1.01-7.52-2.34-15.14-4.94-22.29-1.75-4.84-4.21-10.15-9.25-12.21-3.24-1.32-6.38-2.41-9.84-3-3.11-.53-6.24-.98-9.39-1.1-6.06-.23-12.3,.74-17.19,4.59,.8,.15,1.6,.31,2.41,.46,.07-2.87,.14-5.74,.21-8.61,.02-.91-1.07-.91-1.71-.78-6.87,1.33-13.9,1.48-20.83,.56-1.34-.18-2.99,1.71-1.04,1.97h0Z"></path></g><g><path class="cls-1" d="M90.31,313.45c-2.89,1.47-5.65,3.45-7.26,6.27-1.61,2.82-1.83,6.6,.13,9.19,1.75,2.31,4.86,3.24,7.76,3.13,5.36-.2,10.68-4.11,11.45-9.42,.77-5.31-4.21-10.97-9.49-10"></path><path class="cls-1" d="M89.42,313.05c-4,2.06-8.07,5.24-8.94,9.92-.4,2.16-.08,4.43,1.18,6.26,1.25,1.82,3.36,2.87,5.47,3.33,4.33,.94,9.11-.41,12.51-3.18,3.1-2.52,5.07-6.57,3.93-10.57-1.29-4.54-5.75-7.72-10.48-6.95-.49,.08-1.57,.34-1.65,.96s.84,.65,1.24,.58c3.36-.55,6.43,2.26,7.64,5.18,1.33,3.22,.5,6.73-1.81,9.27-2.26,2.48-5.68,3.84-9.02,3.3-3.93-.64-6.65-3.76-6.23-7.81,.47-4.55,4.12-7.51,7.93-9.47,.45-.23,.81-.77,.27-1.09-.58-.34-1.53,.01-2.05,.28h0Z"></path></g></g><g id="loop"><g><path class="cls-2" d="M482,211.73c-1.82-3.82-7.11-11.28-9.82-14.54-4.34-5.22-7.71-8.64-12.34-13.62-6.44-6.94-15.61-14.07-24.63-16.94l-7.18-3c-17.95-6.96-38.47-6.66-56.49,.12-18.02,6.78-33.48,19.87-43.79,36.13-8.13,12.82-13.15,27.61-14.51,42.73-.53,5.96-.51,11.98,.23,17.92,1.36,10.99,5.18,21.66,11.05,31.05,3.24,5.18,7.07,9.89,11.35,14.13-15.11,14.55-29.54,29.8-43.23,45.7-3.39,3.94-6.79,8-8.87,12.77-2.08,4.77-2.69,10.43-.45,15.13,.69,1.44,1.71,2.84,3.21,3.41,2.2,.84,4.63-.33,6.63-1.57,10.28-6.34,18.71-15.22,26.86-24.14,11.34-12.41,22.36-25.11,33.09-38.05,15.8,9.39,34.55,14.48,53.01,15.27,13.68,.58,27.79-1.01,39.92-7.34,11.87-6.19,21.17-16.61,27.75-28.27,14.96-26.51,21.31-59.41,8.2-86.88Z"></path><path class="cls-1" d="M488.53,208.04c-1.76-3.64-4.18-7-6.54-10.26-2.73-3.77-5.77-7.29-8.92-10.72-7.45-8.13-14.94-16.33-24.74-21.68-2.43-1.33-5.01-2.51-7.66-3.36-1.28-.41,.84,.38,.19,.11-.14-.06-.27-.11-.41-.17l-1.8-.75c-2.92-1.22-5.83-2.47-8.83-3.5-10.56-3.59-22.02-4.79-33.11-3.85-22.97,1.93-44.42,12.57-60.74,28.7-15.62,15.43-25.74,35.81-28.91,57.51-1.7,11.67-1.13,23.41,1.99,34.79,2.91,10.63,8.13,20.59,15.21,29.03,1.83,2.19,3.8,4.26,5.82,6.27,.29-1.82,.58-3.64,.87-5.46-9.72,9.37-19.18,19.03-28.33,28.96-4.52,4.91-8.97,9.89-13.34,14.93s-9.04,10.38-11.91,16.7c-2.54,5.58-3.36,12.83-.23,18.37,5.05,8.91,16.4,1.99,22.36-2.08,10.79-7.35,19.68-17.16,28.39-26.78,10.31-11.38,20.35-23,30.15-34.82-3.57,1.14-7.15,2.28-10.72,3.43,13.77,8.14,29.45,13.14,45.32,14.99,16.59,1.93,34.19,1.16,49.71-5.52s27.47-18.07,35.98-32.08c8.09-13.34,13.71-28.2,16.27-43.59,2.45-14.72,1.5-29.97-3.85-43.98-.67-1.76-1.42-3.49-2.22-5.19-.52-1.1-2.24-1.3-3.24-1.28-1.71,.05-3.72,.77-5.17,1.63-2.03,1.21-6.02,4.13-4.65,7.02,1.9,4.01,3.42,8.18,4.57,12.47l-.27-1.02c1.7,6.51,2.53,13.22,2.55,19.95,.01,3.32-.17,6.64-.52,9.93-.16,1.52-.36,3.04-.59,4.55-.06,.41-.13,.83-.2,1.24-.01,.09-.26,1.45-.08,.48-.18,.96-.37,1.92-.57,2.88-1.4,6.62-3.43,13.09-5.97,19.36-1.27,3.14-2.69,6.22-4.19,9.26-.63,1.29,.54-1.02-.13,.25-.2,.37-.39,.75-.59,1.12-.4,.74-.8,1.49-1.21,2.22-.79,1.42-1.61,2.82-2.47,4.19s-1.75,2.71-2.68,4.03c-.39,.55-.78,1.09-1.19,1.63-.24,.32-.48,.64-.73,.96s-.88,.87-1,1.27l.52-.64c-.17,.21-.34,.41-.51,.62-.26,.31-.52,.61-.78,.92-.53,.61-1.06,1.21-1.61,1.8-1.09,1.18-2.22,2.32-3.39,3.42-.29,.27-.59,.54-.88,.82-1.09,1.01,1.31-1.11,.17-.16-.61,.52-1.22,1.03-1.85,1.53-1.25,1-2.55,1.93-3.86,2.85s1.63-1.03,.33-.22c-.34,.21-.68,.43-1.02,.63-.69,.42-1.38,.82-2.08,1.2s-1.54,.72-2.24,1.17c1.68-1.08,.98-.46,.41-.2-.47,.21-.94,.42-1.41,.62-1.62,.69-3.27,1.28-4.93,1.85-1.49,.51,1.59-.45,.07-.02-.42,.12-.84,.25-1.27,.36-.85,.23-1.7,.45-2.56,.65-1.72,.4-3.45,.74-5.19,1.03-.42,.07-.88,.18-1.31,.2,1.68-.07,.22-.03-.14,.01-.95,.12-1.91,.22-2.86,.31-3.61,.33-7.23,.45-10.86,.4-1.62-.02-3.24-.08-4.86-.16-.44-.02-.88-.03-1.32-.08,1.32,.14-.16-.01-.36-.03-1.03-.08-2.05-.18-3.08-.28-7.94-.84-15.81-2.46-23.42-4.87-1.83-.58-3.64-1.22-5.44-1.88-1.36-.5,.8,.33-.54-.21-.55-.22-1.1-.44-1.64-.66-.95-.39-1.9-.8-2.84-1.22-3.61-1.61-7.13-3.43-10.53-5.44-1.52-.9-3.42-.52-5-.03-2.04,.64-4.32,1.77-5.72,3.45-8.15,9.83-16.47,19.52-24.97,29.05-4.06,4.56-8.15,9.1-12.33,13.55-2.02,2.15-4.07,4.28-6.19,6.34-.95,.93-1.91,1.84-2.88,2.74-.37,.35-2.28,1.98-.6,.56-.62,.52-1.22,1.06-1.84,1.58-1.24,1.04-2.5,2.05-3.78,3.03-.64,.49-1.29,.97-1.95,1.43-.24,.17-.48,.34-.72,.51-.21,.15-1.82,1.23-.63,.44,1.16-.76-.09,.05-.28,.17-.37,.23-.73,.46-1.11,.69-.24,.14-.5,.28-.74,.42-.72,.37-.5,.27,.65-.3-.55,.21-.52,.21,.08,.02l.48-.14c-.67,.15-.53,.14,.41,0-1.37,.13,1.17-.13-.19-.04,.54-.03,.41,.26,.06-.02-.39-.31-.77-.56-1.13-.92l.73,.75c-1.14-1.3-1.82-2.87-2.29-4.52l.27,1.02c-.33-1.29-.52-2.59-.54-3.92-.01-.63,.01-1.26,.06-1.89,.02-.28,.07-.56,.09-.84,.09-1.04-.14,.43,.08-.51,.3-1.32,.68-2.6,1.18-3.86,.21-.52,.43-1.31,.79-1.76-.61,.77-.21,.4-.04,.1,.25-.44,.49-.88,.75-1.31,.67-1.11,1.4-2.19,2.17-3.23,.39-.53,.78-1.04,1.18-1.56,.07-.09,.99-1.19,.3-.38s.33-.39,.46-.54c1.88-2.24,3.81-4.45,5.74-6.65,8.01-9.14,16.28-18.06,24.77-26.76,4.78-4.89,9.63-9.7,14.55-14.44,.85-.82,1.56-1.94,1.77-3.1,.19-1.07-.13-1.59-.9-2.36-.42-.41-.83-.83-1.24-1.25l.73,.75c-9.17-9.52-15.81-21.16-19.23-33.94l.27,1.02c-2.09-8-2.84-16.26-2.41-24.52,.11-2.08,.29-4.15,.54-6.22,.11-.94,.24-1.88,.38-2.82,.07-.43,.13-.87,.2-1.3,.04-.22,.07-.43,.11-.65,.12-.74-.12,.61,.02-.12,.76-3.8,1.64-7.56,2.81-11.26,1.16-3.69,2.54-7.31,4.14-10.84,.39-.86,.8-1.72,1.21-2.58,.1-.2,.19-.39,.29-.59,.08-.15,.5-.99,.17-.35-.31,.59,.03-.06,.08-.15,.14-.26,.27-.52,.41-.77,.9-1.67,1.84-3.32,2.84-4.94,1.89-3.07,3.96-6.03,6.19-8.86,.12-.16,.25-.31,.37-.47,.43-.55-.43,.52-.41,.5,.26-.3,.5-.61,.76-.92,.59-.71,1.2-1.41,1.81-2.1,1.18-1.33,2.41-2.63,3.67-3.89,.56-.56,1.13-1.11,1.7-1.66,.33-.32,.67-.63,1.01-.95,.22-.21,1.4-1.27,.49-.45s.32-.27,.51-.43c.3-.26,.6-.51,.9-.77,.71-.59,1.42-1.18,2.15-1.75,1.35-1.06,2.72-2.08,4.13-3.06,.38-.26,.76-.53,1.14-.78,.09-.06,.45-.23,.49-.33,.03-.06-1.49,.97-.84,.56,.78-.49,1.55-.99,2.34-1.47,1.46-.89,2.95-1.73,4.47-2.53,.76-.4,1.52-.78,2.29-1.16,1.19-.59-1.58,.73-.38,.18,.48-.22,.96-.44,1.44-.65,1.58-.7,3.18-1.35,4.8-1.95,.9-.33,1.8-.65,2.71-.95,.47-.16,2.11-.55,.14-.05,.5-.12,.99-.29,1.48-.43,1.91-.54,3.84-1.01,5.79-1.41,.86-.18,1.73-.34,2.6-.49,.51-.09,1.02-.17,1.52-.25,.21-.03,.45-.04,.65-.1-.37,.1-1.11,.14-.3,.05,3.87-.47,7.76-.71,11.66-.65,.95,.02,1.91,.05,2.86,.1,.43,.02,1.31,.04,.36,.01,.58,.02,1.17,.09,1.76,.15,1.9,.18,3.79,.44,5.67,.76,3.83,.66,7.62,1.6,11.3,2.84,.49,.16,.97,.33,1.46,.51,.2,.07,1.2,.46,.54,.19,.14,.06,.29,.12,.43,.18,.79,.33,1.58,.66,2.36,.99,1.46,.61,2.91,1.24,4.38,1.83,.63,.26,1.25,.46,1.89,.68,.25,.09,1.15,.43,.44,.15,.91,.36,1.82,.76,2.7,1.18,1.7,.81,3.34,1.73,4.94,2.72,3.38,2.1,6.56,4.53,9.53,7.18,1.38,1.23,2.71,2.51,4,3.84l-.73-.75c4.88,5.05,9.81,10.19,14.18,15.69,3.36,4.22,6.74,8.79,9.1,13.66,.53,1.1,2.23,1.3,3.24,1.28,1.71-.05,3.72-.77,5.17-1.63s3.15-2.04,4.07-3.59c.62-1.05,1.17-2.23,.58-3.44Z"></path></g><g><path class="cls-2" d="M428.03,163.63c-17.95-6.96-38.47-6.66-56.49,.12s-33.48,19.87-43.79,36.13c-8.13,12.82-13.15,27.61-14.51,42.73-.53,5.96-.51,11.98,.23,17.92,1.36,10.99,5.18,21.66,11.05,31.05,16.93,27.08,49.7,41.28,81.61,42.63,13.68,.58,27.79-1.01,39.92-7.34,11.87-6.19,21.17-16.61,27.75-28.27,14.96-26.51,21.31-59.41,8.2-86.88-1.82-3.82-7.11-11.28-9.82-14.54-4.34-5.22-7.71-8.64-12.34-13.62-6.44-6.94-15.61-14.07-24.63-16.94"></path><path class="cls-2" d="M427.09,162.7c-18.15-6.97-38.55-7.11-56.82-.46-16.34,5.95-30.61,17.03-40.95,30.96-11.44,15.42-18.04,34.42-18.64,53.61-.6,19.14,5.72,37.87,18.02,52.57,10.76,12.87,25.49,22.11,41.04,28.1,16,6.16,33.53,8.98,50.65,7.82,9.49-.64,18.98-2.71,27.48-7.08,7.88-4.05,14.67-9.95,20.24-16.81s10.13-15.08,13.76-23.38c3.72-8.51,6.52-17.45,8.08-26.61,1.53-8.98,1.87-18.19,.61-27.22-1.16-8.3-3.5-16.91-7.82-24.15-4.11-6.89-9.17-13.1-14.59-18.99-6.54-7.09-13.07-14.06-21.29-19.25-4.1-2.59-8.45-4.78-13.07-6.28-.84-.27-.94,.07-.3,.59,.89,.73,2.06,1.26,3.15,1.61,8.32,2.7,15.48,8.95,21.35,15.24,5.69,6.11,11.48,12.1,16.31,18.95,1.99,2.82,4,5.71,5.51,8.82,1.9,3.92,3.39,8.06,4.51,12.27,2.28,8.52,2.96,17.41,2.38,26.2-1.17,17.68-7.23,35.2-16.33,50.34-4.38,7.29-9.83,14-16.4,19.43-7,5.78-15.18,9.73-23.99,11.86-9.04,2.18-18.46,2.63-27.72,2.08-7.95-.47-15.88-1.72-23.58-3.79-14.87-4.01-28.85-11.12-39.99-21.86-12.77-12.31-21.15-28.89-23.1-46.56-2.1-18.93,2.45-38.61,11.7-55.17,8.25-14.77,20.56-27.29,35.37-35.5,16.07-8.9,35.1-12.31,53.22-9.1,4.47,.79,8.86,2,13.1,3.63,.46,.18,1.51,.62,1.09-.16s-2.22-1.42-2.97-1.71h0Z"></path></g><g><path class="cls-1" d="M360.39,304.31c-13.53-8.48-23.52-22.27-27.95-37.61-4.43-15.34-3.4-32.11,2.29-47.03,4.49-11.77,11.82-22.44,21.2-30.85,3.7-3.31,7.71-6.28,12.02-8.74,7.98-4.55,16.97-7.3,26.12-8.06,26.39-2.18,52.09,12.55,68.82,33.09,7.17,8.8,13.12,18.97,14.93,30.17,1.78,10.96-.54,22.31-5.02,32.47-10.19,23.1-28.91,43.64-53.68,48.55-3.44,.68-11.03,.87-14.53,.69-5.63-.3-9.57-.84-15.17-1.44-7.81-.84-17.1-3.39-23.48-7.97"></path><path class="cls-5" d="M362.05,302.69c-11.68-7.37-20.59-18.75-25.51-31.61-5.62-14.68-5.79-31.17-1.3-46.17,4.27-14.26,12.75-27.12,24.12-36.72,11.81-9.98,26.89-15.2,42.36-14.47,13.88,.65,27.24,6.07,38.64,13.82,11.79,8.02,22.3,19.05,29.12,31.62,3.66,6.75,6.12,14.11,6.5,21.81,.4,8.05-1.23,16.05-4.11,23.54-4.73,12.32-12.27,23.96-21.76,33.14-4.54,4.39-9.62,8.25-15.18,11.24-5.19,2.79-11.29,5.16-17.02,5.89-6.31,.81-12.79,.55-19.1-.09-7.34-.74-14.75-1.41-21.74-3.92-3.17-1.14-6.31-2.57-9.07-4.52-1-.71-2.29-.54-3.29,.13-.63,.42-1.81,1.87-.8,2.58,6.15,4.35,13.55,6.72,20.94,7.93,3.91,.64,7.9,.99,11.85,1.39,3.52,.35,7.05,.64,10.59,.63,3.19,0,6.41-.11,9.58-.49,3.37-.4,6.65-1.31,9.87-2.37,6.47-2.13,12.59-5.39,18.1-9.38,11.34-8.22,20.33-19.44,26.84-31.78,7.55-14.32,11.84-30.59,7.1-46.54-2.25-7.58-6.25-14.52-10.93-20.85-4.48-6.06-9.65-11.61-15.37-16.5-11.18-9.56-24.6-16.8-39.11-19.66-15.77-3.11-32.22-.53-46.25,7.33-13.92,7.8-25.05,20.52-31.97,34.81-7.17,14.8-9.66,31.96-6.45,48.13,2.89,14.57,10.42,28.16,21.58,38.02,2.65,2.34,5.49,4.44,8.48,6.32,1.77,1.11,5.64-1.77,3.31-3.24h0Z"></path></g><g><path class="cls-2" d="M344.32,297.7c-18.2,16.93-35.46,34.88-51.68,53.72-3.39,3.94-6.79,8-8.87,12.77-2.08,4.77-2.69,10.43-.45,15.13,.69,1.44,1.71,2.84,3.21,3.41,2.2,.84,4.63-.33,6.63-1.57,10.28-6.34,18.71-15.22,26.86-24.14,13.82-15.12,27.18-30.64,40.08-46.55"></path><path class="cls-2" d="M342.71,295.79c-10.94,10.19-21.55,20.73-31.79,31.62-5.07,5.39-10.05,10.86-14.93,16.41-4.58,5.2-9.67,10.4-13,16.52s-4.5,13.3-1.46,19.63c1.42,2.96,4.19,5.52,7.67,5.28,3.41-.23,6.57-2.71,9.27-4.61,11.58-8.14,20.94-19.13,30.32-29.6,11.41-12.74,22.49-25.77,33.26-39.04,.77-.95-.23-2.59-.99-3.19-.95-.75-2.1-.82-2.87,.14-9.09,11.2-18.41,22.21-27.96,33.03-4.68,5.3-9.4,10.55-14.2,15.74-4.51,4.87-9.13,9.65-14.18,13.96-2.46,2.1-5.01,4.08-7.69,5.89-1.24,.84-2.48,1.71-3.83,2.36-1.05,.51-2.65,1.25-3.81,.61-.94-.51-1.46-1.91-1.77-2.85-.47-1.42-.67-2.86-.68-4.35-.02-3.2,.95-6.36,2.39-9.19,2.94-5.78,7.59-10.61,11.83-15.45,4.67-5.32,9.42-10.57,14.25-15.75,10.74-11.5,21.89-22.62,33.41-33.34,1.82-1.7-1.42-5.5-3.23-3.82h0Z"></path></g><g><path class="cls-5" d="M327.34,359.5c-3.07-12.77-14.13-22.91-26.33-24.14-1.04-.1-2.12-.14-3.08,.28-.97,.42-1.71,1.27-2.42,2.09-16.94,19.55-33.93,39.17-48.4,60.9-3.82,5.74-7.52,11.75-9.3,18.57-1.78,6.81-1.38,14.64,2.5,20.42,1.39,2.07,3.35,3.91,5.69,4.24,1.16,.16,2.34-.05,3.47-.36,5.74-1.57,10.64-5.45,15.28-9.37,23.93-20.24,45.26-44.01,63.21-70.44"></path><path class="cls-5" d="M329.82,359.21c-1.98-8.04-6.93-15.21-13.79-19.87-3.32-2.26-7.06-3.89-10.99-4.74-2.27-.5-4.78-.87-7.07-.35-2.67,.61-4.21,2.54-5.91,4.51-13.8,15.93-27.59,31.93-39.93,49.05-3.07,4.26-6.07,8.58-8.92,12.99-2.73,4.22-5.26,8.61-6.93,13.36-2.83,8.08-3.27,18.86,2.87,25.64,7.51,8.29,19.64-.49,26.12-5.86,7.57-6.28,14.84-12.95,21.82-19.88,14.19-14.1,27.16-29.43,38.75-45.73,1.47-2.07,2.92-4.15,4.34-6.25,1.31-1.92-3.53-2.11-4.44-.78-10.57,15.53-22.33,30.24-35.22,43.9-6.41,6.8-13.1,13.34-20.04,19.6-3.41,3.07-6.86,6.13-10.45,9-3.39,2.71-7.11,5.41-11.37,6.56-.8,.22-1.48,.37-2.28,.07-.97-.36-1.83-1.1-2.52-1.86-1.36-1.5-2.4-3.35-3.12-5.24-1.5-3.93-1.77-8.33-1.22-12.47,1.23-9.36,6.84-17.55,12.04-25.16,11.17-16.34,23.8-31.61,36.68-46.61,3.19-3.72,6.38-7.45,9.61-11.13,.48-.54,.99-1.3,1.73-1.37,.86-.08,1.86,.2,2.69,.36,1.76,.35,3.46,.92,5.11,1.63,6.93,3.03,12.48,8.94,15.61,15.77,.8,1.75,1.4,3.56,1.86,5.42s5.37,1.04,4.97-.58h0Z"></path></g><g class="cls-4"><path class="cls-1" d="M320.36,356.01c-13.98,12.82-27.96,25.64-41.93,38.46-12.08,11.08-24.47,22.58-31.57,37.91,1.21,2.39,4.14,3.25,6.6,2.68s4.55-2.25,6.52-3.93c15.49-13.13,29.26-28.45,42.97-43.72,7.18-7.99,14.43-16.09,19.56-25.76,.83-1.57,1.54-3.72,.37-5.02-3.22,.33-5.85,2.79-8.25,5.12-14.61,14.24-29.22,28.47-43.82,42.71-4.97,4.84-10,9.77-13.62,15.86-1.05,1.78-1.94,4.25-.66,5.86,.97,1.22,2.72,1.23,4.16,.83,3.31-.92,6.05-3.38,8.63-5.8,18.52-17.4,35.56-36.65,50.81-57.45"></path><g><path class="cls-1" d="M317.87,362.7c.39-.46-.08-.54-.08-.65-.53,.87,.19,.7,.08,.65Z"></path><polygon class="cls-1" points="312.62 371.24 312.6 371 312.02 372.42 312.62 371.24"></polygon><path class="cls-1" d="M306.83,378.56c1.12-.23,2.02-2.72,3.26-3.86l.3-.11v-.95c-1.17,1.64-2.51,3.94-3.56,4.92Z"></path><path class="cls-1" d="M302.49,381.43c.41-.06-.5,.98,.8-.84-.09,.07-.13,.08-.19,.12-.12,.16-.3,.37-.62,.72Z"></path><path class="cls-1" d="M303.1,380.71c.6-.77-.58,.35,0,0h0Z"></path><path class="cls-1" d="M300.33,384.29l.64-1.15c-.3,.1-1.06,.96-.88,.55-.74,1.1-.45,1,.24,.6Z"></path><path class="cls-1" d="M299.93,385.56l.35-.58c-.13,.04-.26,.16-.35,.58Z"></path><path class="cls-1" d="M301.03,383.75l-.74,1.23c.21-.07,.4,.06,.36-.55,.09,.23,.11-.12,.38-.68Z"></path><path class="cls-1" d="M301.63,383.21c.58-.46,1.26-1.11,.62,.04,1.51-1.96,.89-2-.62-.04Z"></path><path class="cls-1" d="M307.1,379.4l.78-.62,.34-.81c-.17,.41-1.33,1.34-1.12,1.43Z"></path><path class="cls-1" d="M294.81,390.14c.06,.16,.59-.06,.8,0l.5-.83c-.4,.3-1.08,.94-1.3,.84Z"></path><path class="cls-1" d="M295.61,390.14l-.74,1.25c.86-.94,.92-1.2,.74-1.25Z"></path><polygon class="cls-1" points="300.39 386.25 301.49 384.1 300.1 386.6 300.39 386.25"></polygon><polygon class="cls-1" points="291.18 394.2 291.46 393.37 290.89 394.8 291.18 394.2"></polygon><path class="cls-1" d="M288.8,396.92c.19-.64-.92,.27-.62-.32-.62,.76-1,1.55-1.35,2.25,.45-.67,1.05-1.28,1.97-1.93Z"></path><path class="cls-1" d="M286.2,400c.22-.34,.42-.73,.63-1.15-.24,.36-.46,.73-.63,1.15Z"></path><path class="cls-1" d="M293.19,393.16c-.14,.02-.46,.02-1.07,.55l.69-.13c.12-.13,.25-.27,.38-.41Z"></path><path class="cls-1" d="M292.84,393.57h-.02c-.42,.45-.7,.76-.83,.89,.11-.11,.36-.38,.85-.89Z"></path><path class="cls-1" d="M293.29,393.05s-.06,.07-.1,.1c.07-.01,.1-.03,.1-.1Z"></path><path class="cls-1" d="M297.66,388.85c-.37,.79-1.33,2.28,.06,1.24,.18-.65-.62-.05-.06-1.24Z"></path><path class="cls-1" d="M294.15,392.89l1.08-1.07c-.1-.05-.41,.05-.22-.35l-.85,1.42Z"></path><polygon class="cls-1" points="293.76 393.53 294.15 392.89 293.75 393.28 293.76 393.53"></polygon><path class="cls-1" d="M288.26,398.37c-.3,.61-.78,1.15-1.31,1.76,.66-.57,1.3-1.2,1.87-1.83-.02-.18,.06-.62-.56,.08Z"></path><path class="cls-1" d="M290.52,396.07s-.06,.09-.08,.12c.09-.04,.14-.09,.08-.12Z"></path><path class="cls-1" d="M281.45,405.91s.09-.02,.14-.04l-.03-.07-.11,.11Z"></path><path class="cls-1" d="M288.97,398.24c.5-.43,.69-.78,.84-1.15-.3,.39-.63,.79-1,1.2,0,.08,.03,.12,.16-.05Z"></path><path class="cls-1" d="M284.82,401.76c.3-.19,.62-.42,.94-.66-.33,.15-.94,.5-.94,.66Z"></path><path class="cls-1" d="M290.21,396.28s.03-.05,.05-.08c-.21,.1-.16,.11-.05,.08Z"></path><path class="cls-1" d="M290.21,396.28c-.18,.29-.28,.55-.39,.81,.24-.32,.46-.62,.63-.9-.08,.04-.17,.07-.24,.08Z"></path><path class="cls-1" d="M281.72,409.55c-.2-.36,.75-1.84,2.08-2.62,.8-1.26-.8-1.47-2.21-1.06,.09,.15,.21,.27-.67,1.5,.53-.22,2.68-2.05,2.06-.88-1.23,1.58-1.24,1.07-2.06,1.62,.93-.24-1.26,2.31-.44,2.51l1.05-1.43c.1,.06-.21,.63,.2,.36Z"></path><path class="cls-1" d="M283.6,403.84l.39-.48c-.54,.46-1,.71-1.86,1.17-.57,.87-.61,1.13-.57,1.27l2.14-2.15-.1,.19Z"></path><path class="cls-1" d="M285.9,401.34c-.01,.65-.9,1.86,.06,1.51,1.22-1.35,.61-1.17,1.21-2.09-1.92,2.21,.4-.78-1.22,.6,.34-.47,.68-.86,1-1.23-.4,.35-.79,.67-1.18,.97,.03-.01,.04-.02,.07-.03h0s0,0,0,0c.12-.06,.18-.06,.06,.02,0,.01-.03,.04-.04,.05,.03,.06,.03,.13,.03,.21-.64,.56-.17,.02-.03-.21,0-.02,0-.05-.02-.07h-.01s-1.84,2.29-1.84,2.29c.47-.4,1-.98,1.9-2.02Z"></path><path class="cls-1" d="M297.39,391.88c-.09,.04-.11,.02-.14,0-.09,.18-.11,.26,.14,0Z"></path><path class="cls-1" d="M296.39,392.62c.1-.2,.08-.45,.57-.94,.49-.37,.15,.14,.28,.21,.19-.39,.73-1.31-.29-.46l-.09,.19c-.89,.79-2.29,1.58-2.2,1.38,.52,0,.93-.05,1.73-.39Z"></path><path class="cls-1" d="M291.2,397.16l-1.49,1.95,1.12-.67-.21-.1c1-.97,.6-.93,.59-1.17Z"></path><polygon class="cls-1" points="281.11 405.96 281 405.41 280.48 406.86 281.11 405.96"></polygon><polygon class="cls-1" points="278.93 408.26 278.73 407.9 278.31 408.66 278.93 408.26"></polygon><path class="cls-1" d="M296.21,398.42l-.4,.61c.2-.28,.32-.46,.4-.61Z"></path><path class="cls-1" d="M299.74,394.56l-.06-.23c-.08,.25-.09,.38,.06,.23Z"></path><path class="cls-1" d="M286.88,392.26c1.01-.47,2.25-.88,1.85-1.11l-.53-.09c-.47,.57-.91,.92-1.31,1.19Z"></path><path class="cls-1" d="M323.53,358.91c.05-.13,.09-.27,.14-.41-.06-.07-.12-.13-.17-.2-.12-.01-.3,.07-.46,.11,.22,.09,.51,.16,.49,.5Z"></path><path class="cls-1" d="M325.16,358.12c-.1,.5-.26,.99-.46,1.48,.17-.36,.36-.84,.46-1.48Z"></path><path class="cls-1" d="M276.83,419.48l-.29,.91c.94-.94,.37-.68,.29-.91Z"></path><path class="cls-1" d="M258.46,423.74c.15-.41,.29-.62,.37-.81-.37,.25-.78,.83-.37,.81Z"></path><path class="cls-1" d="M294.18,393.81c-.24,.38-.3,.58-.22,.63,.25-.39,.36-.63,.22-.63Z"></path><path class="cls-1" d="M259.58,421.45c-.12,.11-.21,.22-.3,.31-.14,.37-.28,.73-.45,1.18,.2-.06,.59-.68,.75-1.49Z"></path><path class="cls-1" d="M290.07,380.43c.07-.04,.14-.09,.21-.12-.02-.06-.1,0-.21,.12Z"></path><path class="cls-1" d="M315.2,363.32c-.2,.22-.56,.55-.89,.86,.18-.13,.46-.38,.89-.86Z"></path><path class="cls-1" d="M269.72,417.05c.47-.48,.04-.11,0,0h0Z"></path><path class="cls-1" d="M273.27,416.02c-.07,.13-.1,.26-.05,.34-.03-.11-.01-.23,.05-.34Z"></path><path class="cls-1" d="M261.15,414.56s.02-.03,.04-.04c-.19,.1-.16,.09-.04,.04Z"></path><path class="cls-1" d="M270.59,416.5c-.22,.13-.46,.3-.71,.5,.12-.07,.34-.22,.71-.5Z"></path><path class="cls-1" d="M270.35,416.45c.18-.15,.32-.26,.45-.37,.01-.11-.07-.09-.45,.37Z"></path><path class="cls-1" d="M269.06,417.72c.27-.27,.55-.5,.82-.72-.12,.07-.17,.09-.16,.05-.14,.14-.34,.34-.66,.66Z"></path><path class="cls-1" d="M251.94,420.89s.07-.07,.12-.1c.26-.66,.1-.4-.12,.1Z"></path><path class="cls-1" d="M296.33,376.76s-.02,.04-.04,.07c.03-.02,.06-.04,.08-.06h-.04Z"></path><path class="cls-1" d="M297.84,374.84c-.36,1.11-.83,1.47-1.47,1.94l1.45,.34,.02-2.27Z"></path><path class="cls-1" d="M287.81,407.71l1.46-.98c-.95,1.95-2.13,2.89-.63,2.09-.82-1.1,4.44-4.97,3.6-6.07l.97-.64c-.23,.23-.2,.32-.43,.55,1.96-1.18,.38-1.86,2.42-3.82,.74-.66,1.35-1.03,1.01-.43l1.22-1.85c.45-.45,.52-.18,.07,.27l2.16-2.55v.04c.17-.5,.65-1.52,.9-2,.71-.5-.18,.41,.09,.36l.99-1.59c.77-.32,0,1.04-.9,1.96,2.16-.38,.77-1.37,3.85-3.61l-1.04,1.41c1.32-.32,2.03-1.52,3.7-2.67-.5,.18-3.54,2.13-2.45,.41,.45-.35,.99-.87,1.51-1.86,.37,.31,.99-.55,1.85-1.57l.42,.49c.82-1.2,.49-1.33,.84-2.16,1.1-1.16,1.69-1.1,2.26-1.11,1.76-1.89-1.76,.84,.13-1.56,1.57-1.48,2.34-2.82,3.63-5.07,1.1-1.05,.15,.45,.62,.13l.41-1.37c.21-.25,.27-.08,.3,.02,.52-1.02-.45-.46,.46-1.98-.15-.4,.6-.97,1.44-1.76,.22-.21,.4-.37,.66-.66,.28-.32,.57-.67,.83-1.04,.51-.73,.96-1.5,1.13-2.14,.62-.65,.27,.3,.68,.11,.44-.97,.69-1.62,.9-2.11,.1-.24,.19-.45,.27-.64,.04-.17,.08-.32,.12-.47,.07-.29,.12-.56,.17-.88,.02-.15,.05-.33,.08-.53,.02-.19-.02-.36-.02-.58,.44-.75,.91-1.55,1.2-2.27-.45,.89-.8,1.02-.94,.8-.15-.23-.14-.84-.23-1.49-.03,.09-.07,.18-.11,.27-.04,.09-.14,.23-.2,.33-.15,.22-.29,.43-.42,.62-.25,.35-.47,.65-.64,.89,.01-.55-.1-1.09-.54-1.52,.16-.51,.74-.88,1.41-1.09-.14-.05-.3-.08-.44-.08,.06-.36,.15-.66,.27-.92,.06-.13,.14-.25,.22-.35,.09-.12,.07-.08,.13-.11,.16-.06,.42,.08,.66,.27,0,.42-.08,.85-.2,1.28,.28,.35,.61,.57,1.01,.12-.06-.1-.09-.36-.13-.69,.1,.08,.18,.11,.24-.02,.06-.14-.08-.29-.28-.59,.16-.39,.28-.77,.37-1.16l-.28,.08c-.07-.21-.16-.42-.28-.63-.05-.1-.11-.21-.18-.31-.06-.11-.13-.21-.2-.23l-.85-.49c-.37,.03-.72,.07-1.07,.11-1.53,.75-2.88,1.79-4.27,3.2-1.39,1.37-2.7,3.09-4.12,4.69,.3-.66,.34-.99,.24-1.21-.09-.23-.31-.35-.35-.74,.62-.13,1.31-.88,2.2-1.8,.88-.91,1.96-1.89,2.89-2.32-.97,.48-.63-.07-.3-.38-1.3,.95-2.63,2.23-3.87,3.63,.07-.75-.85,.24-2,1.08,.57,.15-.11,1.04-1,2.02-.37,.4-.79,.85-1.2,1.29-.36,.39-.7,.77-.91,1.09-.3-.18-.28-.67,1.1-1.91-1.99,.89-1.07,2.68-2.95,3.62,.32-.32,.53-.45,.54-.7-.55,.95-2.56,2.58-2.33,1.95l.32-.32c-2.23,2.01-6.55,6.37-6.27,7.29-.1-.06-.43-1.01-.42-1.26l-1.84,5.79c-.17-.85-2.68-.83-1.19-2.87-.58,.42-1.3,.95-2.2,2.19,.42-.27,1.61-.09,1.18,.42-1.88,.69-1.21,.57-3.31,1.65,.63-.4,.85,.99,0,1.77,0-.25-.86-.74-.64-1.12l-1.27,2.81c.37-.65-.57-.77-1.26-.55,.37-.05-1.79,1.72-2.26,2.33l1.05-.66c-2.44,2.14-1.19,3.37-3.54,5.57,.12-.44-.31-1.7-1.58-.65-.13,.94-.44,4.3-2.17,6.61l-.62,.15-1.3,1.79c.37-1.57,1.83-5.54,2.83-7.5-1.05,.66-.51-.04-1.79,1.25-.68,.23,.38-1.03,.75-1.41l-3.17,2.81c.6,.35-1.85,2.74-1.34,3.03l2.81-3.71c.6,.35-.57,3.22-2.8,5.23-.73,.34-.43-1.25-.63-1.37-.12,.44-1.73,2.3-2.04,2.38l.66-1.15c-1.37,.98-1.33,2.54-3.21,3.48-.52,.45-2.09,.82-1.89,1.19,1.35-.24,3.16,1.31,3.02,2.24-.21,.13-3.11,2.01-3.93,2.31-1.24,.38,.2-2.23-.85-1.91,.1,.16-.19,.77-.32,1.01-.63,.41-.19-.62-1.25,.58,.3,.66-2.3,2.3-.11,.94-.94,1.26-1.25,1.1-2.47,2.48,.71-.14,.01,2.22-.8,3.53-.08-.18-.47-.05-.66,.01-1.01,1.22-1.82,2.14-2.57,3.08-.74,.95-1.46,1.86-2.19,3.21-.14,.1-.4,.43-.65,.75-.24,.31-.44,.53-.45,.13-.06,.56-.01,1.04-.11,2.09-.31,1.1-.35,.52-.34-.19,.03-.68,.21-1.5-.35-.64,.17,.08,.15,.71,.3,1.47,.07,.38,.19,.79,.36,1.18,.19,.38,.43,.73,.7,1.01,.13,.13,.26,.24,.39,.32,.01-.13-.04-.3-.15-.52-.22-.44-.58-1.11-.72-1.9-.15-.78-.12-1.65-.02-2.29,.35,.07,.54,.57,.77,1.18,.24,.61,.55,1.39,1.28,1.92,.27,.19,.64,.34,1.01,.41,.84,.14,.98,.17,.95,.35-.02,.16-.25,.33-.07,.26,.45,.02,.84-.07,1.16-.18,.32-.12,.56-.25,.83-.42,.51-.32,.82-.67,1.1-.98,.56-.66,1-1.18,2.6-2.03,1.46-.49,.73,.79,1.22,.89-1.44,1.41-2.65,1.52-3.78,2.1,.52-.15,1.03-.35,1.54-.56-.42,.5-1.56,1.24-2.3,1.34,.68,.03,2.5-.8,4.27-2.19,1.79-1.36,3.6-3.13,5.04-4.18,.33-.57,1-1.45,.47-1.25l-.76,.83c-1.05,.4,1.12-1.89-.05-1.06,.89-1.25,1.76-2.77,3.45-4.07l.71,.16c-.16-.1-1.25,.71-1.54,1.25,.44-.81,2.92-1.67,3.03-2.93l-1.35,.74c.86-1.28,1.72-3.06,3.18-4.25-1.03,.18-.26,.35-1.7,.79,1.44-.19-3.42,3.35-1.46,2.7-1.55,.37-1.94,1.4-3.7,2.14,.18,.11,.72-.16-.47,.86-.01,.09-.08,.26-.13,.37-.04,.03-.05,.04-.09,.06,.03-.02,.05-.03,.08-.04-.03,.07-.03,.08,.03-.02,.33-.19,.62-.33,.79-.33-.24,.88-2.07,2.59-2.52,3.35-.74,.57,.12-.44-.39-.24l-.67,1.13c-.4-.23-2.29,1.09-.89-.55-.48,.44-.95,.86-1.43,1.26-1,.55-2.17,1.33-2.78,1.93-.7,.36-1.48,1.37-1.04,.77-.36,.23-.72,.45-1.09,.63-.23,.11-.26,.14-.36,.2-.09,.05-.18,.1-.28,.14v-.11c-.43,.05-1.02,.15-1.46-.23-.31-.26-.42-.71-.31-1.14,.05-.21,.15-.42,.28-.6l.3-.41c.13-.16,.27-.32,.42-.47,.37-.84,.8-1.82,1.85-3.08l.5-.04c.61-1.11,2.61-2.76,2.67-3.42,.84-.19,1.89-1.3,3-2.55,1.1-1.25,2.27-2.64,3.15-3.39l-.29-.42c1.15-1.1,2.15-2.27,3.45-3.82l-.4-.24c.98-1.47,3.4-2.86,5.32-4.8-.01,.25-.54,.7-.96,.97,3.04-1.55,4.41-5.32,7.04-6.86,.41-.63,.83-.96,1.28-1.24-.05,.05-.09,.1-.11,.14,.06-.05,.14-.13,.22-.21,.29-.17,.59-.34,.9-.54-.3,.14-.57,.28-.78,.43,.4-.4,.98-1.04,1.5-1.71l.59,.09c.05-.05,.08-.09,.13-.15,.72-.45,.32-.63-.25-.58,.25-.35,.46-.69,.6-.99,1.02,.09,1.4-1.73,2.64-1.78,.12-.69,2.83-3.18,2.56-4.1,.1,.06,.31-.08,0,.25,.74-.59,1.48-1.17,1.92-1.94l.71,.16,.9-2.02c1.15-.6,1.68-.81,1.12,.39,1.64-2.61,1.55-1.89,2.87-4.18l.19,.37c.64-.65,1.31-2.04,1.93-2.19,.99-.44,2.81-2.18,4.91-4.2,1.05-1.01,2.17-2.09,3.29-3.12,.28-.25,.56-.51,.84-.76l.42-.37c.14-.12,.3-.26,.35-.29,.31-.23,.59-.41,.84-.53-.37-.45-.07-.56,.26-.65,.33-.09,.57-.05,.72-.82,.08,.31,.23,.39-.09,1.02,.44-.6,.73-.69,.96-.78,.26-.11,.44-.26,1.38-1.4-.3,.65-.8,1.12-.92,1.48,.13-.18,.64-.74,.47-.34-.19,.4-.51,.65-.78,1,.14-.08,.31-.22,.53-.42,.44-.39,1.1-1.1,1.79-1.8,.68-.67,1.43-1.47,2.17-2.26-.19,.92-.39,1.43-.33,1.66,.05,.23,.32,.19,.79,.07-.71,.84-1.42,1.69-1.32,.92-.1,.33-.63,1.26-1.03,1.9-.37,.67-.61,1.19-.14,1.06-.34,.26-.51,.74-.51,.88-.4,.61-.64,.91-.86,1.23-.11,.15-.21,.31-.34,.49-.16,.25-.35,.54-.6,.92l.41-.41c.17,1.12-.85,1.52-1.76,2.92l-.03-.09c-2.76,2.72-.78,1.5-3.64,4.07l.5,.14c.58,.94-2.6,2.22-3.75,4.14l.73-.43c-.52,1.15-3.27,1.63-4.17,2.44-.24,.14,.17-.41,.36-.73-2.56,1.97,.2,.72-1.26,2.59-.54,.1-.27-.99-1.38,.15-.73,.41-2.28,4.18-4.22,5.37,.52-.18,1.03-.36,.44,.59-1.06,1.32-3.79,2.73-4.2,4.41-.2,.11-.3,.13-.36,.09-.71,1.1-2.56,3.34-2.76,4.21-2.02-.24-4.85,6.45-5.96,5.37l-2.66,2.94-.04-.18c-1.82,1.77-2.18,2.66-2.53,3.55-.48,.35-.29-.06-.31-.15-2.8,2.44-3.01,2.74-4.67,5.47l-.58-.12c-.4,.8-4.34,3.2-6.59,6.08-.01-.07-.02-.19,.14-.44-2.58,3.23-8.11,5.51-8.07,7.83-.58,.7-1.16,1.4-1.75,2.06,2.74-2.1,.1,.94,1.39,.26-.99,1-3.11,1.72-1.84,.66l.26-.09c-.05-.56-.93,.05-1.84,.59-.92,.56-1.91,.95-1.99,.63-.68,.27-1.33,.45-1.97,.46-.3,.02-.7-.02-.92-.05-.24-.04-.47-.11-.7-.2-.44-.18-.83-.46-1.12-.81-.14-.18-.26-.37-.35-.57-.04-.05,0-.1,.03-.15l.09-.15,.17-.3c.68-1.14,1.35-2.27,2.01-3.38,.87-1.34,1.7-2.69,2.6-3.98l-1.01,.21,1.25-1.82c.49-.37,.9-.32,0,.97,.77-.46,1.23-2.35,1.12-2.49,2.03-2.33,0,1.48,.56,.72l.7-1.07-.24,.18c.37-1.02,.19-1.27,1.37-2.75,.85-.85,.74-.2,1.05-.55,.04,.03,.16-.07,.47-.55,.6-.7,1.2-1.41,1.83-2.09l-1.17,.47c.59-1.12,1.75-1.97,.4-1.42,1-.4,2.79-2.29,4.54-4.11,1.73-1.83,3.41-3.61,3.94-3.91,.95-1.53,2.2-2.72,3.78-4.16-.47,.28-1.15,.02,.25-1.19,.42,1.44,2.87-1.89,4.63-2.2-1.42,.44,3.77-3.68,1.61-2.93,1.21-.97,.41,.31,1.49-.26,2.37-2.87,6.21-5.24,9.45-8.45-.07-.18-.81,.14-.27-.71l2.37-.98c.6-.67-.08-1.31,1.55-1.97-.27,.05-.68,.12-.27-.33,7.16-5.4,12.97-12.84,20.73-17.78-1.13,.58-.55,0,.13-.64-.5,.35-.28-.33-.53-.42l3.24-2.08c.06-.96,2.97-2.78,2.83-3.52l-.81,.9c.67-1.63-2.77,.29-3.24-.58-.74,1.83-4.33,2.26-5.67,5.14-.61,.29,.2-.6-.21-.53-.27,.81-.88,1.48-2.23,2.47l.07-.2c-3.38,3.24-5.13,4.29-9.19,7.65l.61,.09c-.88,.72-1.15,.77-1.62,1.04-.47,1.41,2.37-2.11,2.03-.73-1.76,.3-5.88,5.37-7.37,5.25-1.28,1.17,.75,.06-.54,1.23l-.54,.09-.07,.58c-.88,.72-1.56,.84-1.76,.68,.22-.16,.53-.58,.74-.8-1.32,.74-2.99,2.9-3.44,3.16l1.35-.99c-3.31,3.41-7.84,7.04-10.81,10.58l.41-.07c-2.3,2.67-2.23,1.71-4.93,4.47l.07-.14c-.41,.69-1.09,1.48-1.87,2.18,.53-.86-1.68,.9-.95-.2-2.45,2.96-1.13,1.55-2.35,3.91l-.67,.14c-.38,.84-.3,1.01-1.59,2.45,.89-1.35-1.27,.48-.32-1.08-3.45,2.33-3.57,4.93-5.7,5.51-.49,2.07,2.79-2.23,2.25-1.3,.84-.41-.48,1.65-1.4,2.53-.85,.97-2.46,.78-4.53,3.36,.21-.25,.17-.32,.38-.57-1,.78-1.22,2.11-2.48,3.05-.02,1.04-1.18,1.58-.69,2.23,.53-.85,1.07-1.71,1.64-2.53-.45,.73-.71,1.57-1.1,2.47-.4,.9-.94,1.85-1.88,2.9-.01-.27,.27-1.08,.5-1.63-.65,.56-.75,1.41-1.42,1.99-.27-.32,.21-1.11,.81-2.06,.61-.94,1.4-2,1.69-2.93-.79,.53-1.56,3.17-1.73,1.92,.16,1.72-1.98,2.63-2.41,5.01l-.33-.37c-.12,.35-.32,1.08-.65,1.65,0-.45,.05-.89,.07-1.33-.26,.91-.77,1.63-1.32,2.33-.27,.35-.55,.69-.8,1.06-.06,.07-.13,.23-.19,.39l-.19,.47c-.12,.32-.22,.64-.31,.97,.25-.66,.45-1.18,.61-1.57,.16-.34,.27-.43,.36-.56,.18-.21,.27-.21,.34-.14,.14,.14,.19,.53,.71-.06-.1,.27-.2,.5-.29,.72-.09,.21-.18,.39-.28,.66-.19,.48-.36,.86-.54,1.18-.35,.64-.68,1.07-1.05,1.55-.18,.24-.37,.5-.58,.81-.34,.32-.11,.65,.04,1.07,.31,.81,.93,2.04,2.73,3.1-.52-.24-1.28-.96-1.61-1.5-.34-.55-.38-.84,.22-.3,.8,1.15,2.48,2.24,3.38,2.71,.68,.19,1.2,.26,1.56,.29,.38,.02,.5,0,.61-.02,.18-.05,.01-.12-.23-.22-.54-.18-1.43-.55-.33-.5,1.48,.71,2.24-.13,3.78-.78l.16,.46c1.12-.29,1.66-.62,1.96-.85,.3-.24,.35-.41,.38-.57,.06-.34,.13-.58,1.68-1.47-.27,.48-.56,.96-.9,1.43,.53-.4,1.01-.82,1.48-1.25l.02,.67c1.41-1.58,1.86-1.89,3.4-2.99-.55,.03-.38-.82,.86-1.92,1.04-.53-.17,.77,1.54-.84-.2,.57-.37,1.26-1.45,1.59,.02,.19-.2,.57-.18,.76,1.15-.54,2.36-1.97,2.99-2.54-.26,.21-.57,.45-.76,.53,.7-.92,1.41-1.84,2.09-2.78,.52-.23,.3,.17,.09,.56,.47-.51,.68-.99,1.4-1.71,.07,.47,.39,.72-.54,1.83,.7-.84,1.41-1.67,2.09-2.53,.27-.02,1.53-.8,1.33-.41,1.48-1.07,2.67-3.6,4.58-5.06,.03-.14,.16-.37,.48-.76,1.66-1.51,3.39-2.59,4.86-4.86l1.55-.59c1.33-1.6-2.05,.85,.16-1.82,1.52-1.92,1.06-.25,1.8-.73,.59-1.12,1.51-3.16,3.46-4.4-.41,.63-.89,.99-1.32,1.53Zm16.96-19.07c-.25,.44-.68,1.38-1.13,1.45-.04-.79,.45-.93,1.13-1.45Zm17.66-32.93c.22-.08,.43-.09,.65-.05,.21,.06,.47,.05,.59,.49-.08-.08-.16-.2-.25-.27-.11,0-.23-.02-.34-.03-.23-.04-.44-.06-.65-.14Zm-57.76,66.47s-.02,.03-.02,.05c-.91,.46-.58,.31,.02-.05Zm1.77-1.23c.12-.2,.06-.24-.05-.23-.03,.19-.39,.53-.83,.86,.2,0,.47-.12,.89-.64Zm-7.59-3.88l-.38,.26c.52-.85,.44-.56,.38-.26Z"></path><path class="cls-1" d="M324.95,358.2c-.08,.2-.18,.31-.27,.41,.06,.11,.17,.03,.27-.41Z"></path><path class="cls-1" d="M276.88,419.31l-.06,.05c-.01,.05,0,.09,0,.12l.05-.17Z"></path><path class="cls-1" d="M265.94,406.48c.39-.29,.63-.41,.82-.47-.06-.1-.29-.02-.82,.47Z"></path><path class="cls-1" d="M274.56,412.06l-.95,1.11c.49-.51,.74-.61,1.05-.8-.1-.06-.41,.02-.1-.3Z"></path><path class="cls-1" d="M285.56,405.12c.1-.2,.31-.33,.41-.53l-.2-.11c-.62,.67-.93,1.25-.21,.64Z"></path><path class="cls-1" d="M276.64,412.25c.37,.21,.92-.54,1.59-1.31-.04,.04-.08,.09-.13,.13-.19-.61-.83,.29-1.46,1.19Z"></path><path class="cls-1" d="M278.39,410.76c.21-.23,.43-.47,.66-.68-.08-.25-.3,.24-.66,.68Z"></path><path class="cls-1" d="M268.35,418.82c.42-.26-.14-.59,.18-.65,.04-.75-1.91,2.67-.18,.65Z"></path><polygon class="cls-1" points="278.17 412.62 277.56 412.52 277.43 413.21 278.17 412.62"></polygon><path class="cls-1" d="M272.13,418.01l1.27-1.04c-.08-.04,.04-.22,.2-.43-.73,.69-1.6,1.39-1.47,1.47Z"></path><path class="cls-1" d="M273.6,416.55c.38-.36,.73-.72,.89-.98-.2,.2-.63,.64-.89,.98Z"></path><polygon class="cls-1" points="276.69 414.3 276.27 414.57 275.42 415.35 276.69 414.3"></polygon><path class="cls-1" d="M258.12,426.6c-.5-.1-.98-.35-1.33-.73l-.05-.06c-.1,0-.14,.06-.11,.2,.02,.16,.22,.44,.58,.62,.44,.14,1.06,.22,.91-.02Z"></path><path class="cls-1" d="M263.45,426.87c-.51,.13-.58,.06-.91,.02l.2,.59c.25-.19,.48-.41,.72-.61Z"></path><path class="cls-1" d="M257.56,428.07c-.32,.28-3.16-1.31-.62,.26,.32,.04,2.56,.29,.62-.26Z"></path><polygon class="cls-1" points="269.12 405.73 268.8 406.06 269.56 406.74 269.12 405.73"></polygon><path class="cls-1" d="M284.42,387.41c-1.69,1.3,.08,.8-1.51,1.92-.19,.52,1.29-.91,1.07-.41,.74-1.07,1.32-1.44,.43-1.51Z"></path><path class="cls-1" d="M283.99,388.92c-.12,.17-.24,.36-.36,.57,.22-.3,.31-.46,.36-.57Z"></path><polygon class="cls-1" points="319.25 360.35 320.4 359.58 319.52 359.93 319.25 360.35"></polygon><path class="cls-1" d="M320.66,358.02l.68,.26,.21-.99c-.21,.23-.61,.67-.88,.72Z"></path><path class="cls-1" d="M308.29,386.69l-.05-.18c-.27,.05-.49,.28-.94,.74l.98-.56Z"></path><polygon class="cls-1" points="295.53 400.12 295.75 399.89 294.92 399.94 295.53 400.12"></polygon><path class="cls-1" d="M285.44,412.04c.46-.45,.88-1.08,1.34-1.52-.88,1.08-1.99,1.14-1.34,1.52Z"></path></g></g><g id="data"><g><g><path class="cls-2" d="M374.34,286.69c-3.4-8.38-6.8-16.75-10.2-25.13-.69-1.69-1.38-3.47-.75-4.8,.31-.65,1.04-1.15,2.02-1.36,1.77-.39,2.53-1.7,2.19-3.39-.31-1.54-.07-2.89,1.39-3.63,1.14-.57,2.84-.65,4.51-.71,11.34-.41,23.02-.36,34.96,.15,2.53,.11,5.12,.24,7.83,.83,.81,.18,1.66,.4,2.43,.77,1.21,.58,2.1,1.45,2.72,2.29,1.05,1.42,1.49,2.82,1.91,4.19,2.89,9.45,5.78,18.89,8.66,28.34,.13,.42,.25,.85,.07,1.18-.24,.41-.95,.55-1.64,.66-10.46,1.61-48.2,2.2-56.08,.62"></path><path class="cls-2" d="M375.79,286.3c-3.09-7.62-6.18-15.23-9.27-22.85-.68-1.67-1.62-3.43-1.87-5.23-.09-.66-.11-1.42,.3-1.98,.49-.66,1.51-.71,2.22-1.06,.97-.48,1.74-1.19,1.92-2.31,.22-1.36-.79-3.23,.61-4.26,.71-.52,2-.37,2.84-.41,.95-.04,1.89-.07,2.84-.09,2.07-.06,4.14-.11,6.21-.14,3.87-.06,7.74-.06,11.62-.01,4.1,.05,8.21,.15,12.31,.31,3.69,.14,7.97,0,11.44,1.44,3.71,1.54,4.61,5.46,5.67,8.93,1.2,3.94,2.41,7.87,3.61,11.81,1.16,3.78,2.31,7.56,3.47,11.34,.28,.93,.68,1.88,.87,2.83,.03,.15,.11,1.84,.58,.91-.02,.04-.42,.07-.48,.08-.72,.07-1.45,.19-2.17,.26-8.81,.92-17.72,1.06-26.57,1.17-5.31,.06-10.62,.06-15.93-.09-3.45-.1-7.03-.11-10.43-.78-.64-.12-1.45,.13-2.02,.4-.22,.1-1.01,.53-.38,.66,3.2,.63,6.55,.66,9.8,.78,5.01,.17,10.03,.19,15.05,.15,9.72-.08,19.52-.22,29.19-1.22,.75-.08,1.5-.16,2.24-.27,1.18-.17,3.01-.32,3.86-1.29,.53-.6,.22-1.29,0-1.98-.33-1.1-.67-2.2-1.01-3.31-.65-2.13-1.3-4.25-1.95-6.38-1.28-4.17-2.55-8.35-3.83-12.52-.63-2.08-1.25-4.16-1.91-6.23-.52-1.62-1.21-3.16-2.39-4.41-2.65-2.81-7.2-2.95-10.8-3.17-4.29-.26-8.6-.36-12.89-.44-8.46-.17-17-.26-25.45,.25-2.6,.16-7.1,.73-7.06,4.18,.02,1.4,.66,3.15-1.07,3.75-1.29,.45-2.8,.96-3.16,2.44-.43,1.77,.62,3.71,1.27,5.31,.8,1.98,1.61,3.96,2.41,5.94,1.64,4.04,3.28,8.07,4.91,12.11l2.5,6.17c.25,.61,3.08-.33,2.9-.78h0Z"></path></g><g class="cls-3"><path class="cls-5" d="M374.34,286.69c-3.4-8.38-6.8-16.75-10.2-25.13-.69-1.69-1.38-3.47-.75-4.8,.31-.65,1.04-1.15,2.02-1.36,1.77-.39,2.53-1.7,2.19-3.39-.31-1.54-.07-2.89,1.39-3.63,1.14-.57,2.84-.65,4.51-.71,11.34-.41,23.02-.36,34.96,.15,2.53,.11,5.12,.24,7.83,.83,.81,.18,1.66,.4,2.43,.77,1.21,.58,2.1,1.45,2.72,2.29,1.05,1.42,1.49,2.82,1.91,4.19,2.89,9.45,5.78,18.89,8.66,28.34,.13,.42,.25,.85,.07,1.18-.24,.41-.95,.55-1.64,.66-10.46,1.61-48.2,2.2-56.08,.62"></path><path class="cls-5" d="M375.79,286.3c-3.06-7.54-6.12-15.08-9.18-22.62-.66-1.64-1.53-3.31-1.89-5.05-.16-.75-.29-1.81,.29-2.43,.51-.55,1.52-.6,2.18-.94,.97-.5,1.74-1.27,1.9-2.38,.19-1.3-.82-3.4,.7-4.27,.6-.34,1.52-.28,2.18-.31,.93-.05,1.87-.07,2.8-.1,2.12-.07,4.24-.12,6.36-.15,4.03-.06,8.06-.07,12.1-.02,3.94,.05,7.88,.15,11.81,.29,3.83,.14,8.06,.02,11.7,1.34,3.7,1.35,4.71,5.13,5.74,8.52,1.2,3.94,2.41,7.87,3.61,11.81,1.16,3.78,2.31,7.56,3.47,11.34,.29,.94,.58,1.89,.87,2.83,.06,.19,.47,1.18,.29,1.36-.06,.06-.34,.03-.43,.06-.55,.19-1.33,.17-2,.23-8.85,.9-17.8,1.06-26.69,1.16-5.29,.06-10.58,.06-15.87-.1-3.37-.1-6.86-.11-10.17-.75-.66-.13-1.44,.07-2.03,.36-.23,.11-1.01,.65-.35,.78,3.2,.63,6.55,.68,9.8,.79,5.01,.17,10.03,.19,15.05,.15,9.72-.08,19.52-.2,29.2-1.21,1.75-.18,5.09-.13,6.17-1.68,.42-.6,.12-1.3-.08-1.94-.33-1.1-.67-2.2-1.01-3.31-.65-2.13-1.3-4.25-1.95-6.38-1.28-4.17-2.55-8.35-3.83-12.52-.63-2.08-1.25-4.16-1.91-6.23-.52-1.63-1.22-3.18-2.4-4.44-2.63-2.81-7.21-2.99-10.81-3.2-4.29-.26-8.6-.36-12.89-.44-8.42-.16-16.9-.21-25.31,.23-2.68,.14-7.22,.71-7.18,4.26,.02,1.43,.66,3.07-1.1,3.66-1.29,.43-2.8,1.04-3.14,2.51-.42,1.8,.62,3.71,1.27,5.33,.8,1.98,1.61,3.96,2.41,5.94,1.64,4.04,3.28,8.07,4.91,12.11l2.5,6.17c.29,.71,3.13-.21,2.9-.78h0Z"></path></g></g><g id="paper"><g><path class="cls-1" d="M372.07,208.27c-.73,19.64-.92,39.3-.58,58.95,19.1-1.03,38.2,1.03,57.3,0,2.64-23.93,3.37-49.55,2.2-73.55-10.77-.16-24.83,.49-38.07,.31-1.5-.02-3.08-.21-4.44,.28-1.02,.37-1.79,1.04-2.54,1.7-4.61,4.07-9.23,8.15-13.84,12.22"></path><path class="cls-5" d="M370.63,208.47c-.72,19.7-.92,39.43-.59,59.14,0,.33,.67,.39,.87,.38,19.1-1,38.2,1,57.3,0,.48-.02,1.95-.26,2.02-.96,2.09-19.09,2.96-38.31,2.7-57.51-.07-5.41-.24-10.82-.5-16.23-.02-.34-.66-.37-.87-.38-8.21-.11-16.42,.15-24.63,.27-4.4,.06-8.8,.11-13.2,.04-2.1-.03-4.21-.21-6.18,.66-1.79,.78-3.19,2.27-4.63,3.54-3.99,3.52-7.98,7.04-11.97,10.57-.47,.42-.3,.77,.25,.93,.6,.17,1.59-.14,2.05-.55,3.3-2.92,6.61-5.83,9.91-8.75,1.54-1.36,3.04-2.79,4.64-4.07s3.77-.8,5.71-.78c8.15,.08,16.3-.13,24.45-.26,4.15-.07,8.3-.12,12.45-.06l-.87-.38c.92,19.12,.67,38.31-.74,57.41-.39,5.33-.88,10.65-1.46,15.96,.67-.32,1.35-.64,2.02-.96-19.1,1-38.2-1-57.3,0l.87,.38c-.33-19.59-.14-39.18,.58-58.76,.04-1.09-2.86-.48-2.89,.4h0Z"></path></g><g class="cls-3"><path class="cls-5" d="M372.18,208.36c5.55-5.08,11.26-10,17.11-14.76,.37,6.52,.73,13.04,1.1,19.56-5.76-1.46-11.52-2.92-17.29-4.38"></path><path class="cls-5" d="M373.15,209.04c5.56-5.08,11.27-10.01,17.11-14.76-.81-.19-1.62-.39-2.44-.58,.37,6.52,.73,13.04,1.1,19.56l2.3-1.1c-5.76-1.46-11.52-2.92-17.29-4.38-.71-.18-1.56-.06-2.05,.55-.39,.49-.3,1.27,.39,1.44,5.76,1.46,11.52,2.92,17.29,4.38,.69,.17,2.36-.05,2.3-1.1-.37-6.52-.73-13.04-1.1-19.56-.07-1.2-1.7-1.19-2.44-.58-5.84,4.76-11.55,9.68-17.11,14.76-1.45,1.32,.83,2.38,1.93,1.37h0Z"></path></g><path class="cls-5" d="M385.16,246.89c1.38-1.87,3.24-4.61,5.88-4.5,1.01,.04,2.09,.64,2.49,1.61,.35,.84,.08,2.04-.9,2.23l1.66,1.2c.63-1.72,1.89-3.12,3.63-3.74,.66-.24,1.83-.63,2.26,.14,.38,.69-.02,1.8-.26,2.47-.59,1.61,1.92,1.35,2.61,.62,2.1-2.2,4.38,.77,6.58,1.07,1.46,.2,3.03,.05,4.5,.04,1.74-.01,3.48-.02,5.22-.03s2.21-2.18,.24-2.17c-1.98,.01-3.95,.02-5.93,.03-.98,0-2.07,.13-3.04-.03-.84-.13-1.44-.74-2.15-1.15-2.56-1.45-5.87-.75-7.86,1.34l2.61,.62c.46-1.25,.92-2.88,.14-4.11-.87-1.37-2.64-1.45-4.08-1.21-3.19,.52-6.12,2.67-7.25,5.75-.4,1.09,.87,1.35,1.66,1.2,1.73-.33,3.23-1.74,3.43-3.53,.22-1.91-1.22-3.43-2.89-4.1-4.57-1.84-8.52,2.04-10.99,5.37-1.1,1.48,1.62,1.99,2.43,.89h0Z"></path><path class="cls-5" d="M385.44,252.75c.07-.48,.15-.88,.3-1.35,.08-.23-.25-.43,.18,.07,.4,.46,.7,.96,1.18,1.36,1.02,.84,2.38,1.22,3.69,1.13,2.44-.18,4.88-2.34,4.17-4.94-.32-1.15-2.09-.59-2.66-.03-1.88,1.85-.65,4.61,1.61,5.39,2.89,.99,5.69-.55,8.03-2.11h-2.28c1.79,2.17,4.76,2.94,7.47,2.35,1.41-.31,2.95-1.04,3.76-2.29,.69-1.06,.62-2.54-.59-3.2-1.12-.6-2.76,.03-3.25,1.19-.54,1.28,.45,2.27,1.62,2.63,1.67,.51,3.7,.32,5.43,.41,2.16,.11,4.33,.22,6.49,.33,.67,.03,1.6-.19,1.89-.88,.26-.63-.24-1.16-.88-1.2-2.16-.11-4.33-.22-6.49-.33-1-.05-2-.1-2.99-.15-.45-.02-.92,0-1.37-.07-.27,0-.53-.06-.78-.18-.14-.48-.44-.43-.93,.12l-.99-.22c.89,.55-.1,1.39-.71,1.66-.52,.22-1.1,.29-1.66,.26-1.33-.07-2.54-.7-3.38-1.73-.56-.68-1.66-.43-2.28-.01-1.17,.78-2.58,1.83-4.08,1.57-1.21-.21-2.28-1.69-1.23-2.72l-2.66-.03c.32,1.18-.44,2.38-1.74,1.96s-1.57-1.75-2.64-2.37c-1.05-.61-2.42-.4-3.41,.25-1.2,.78-1.58,2-1.76,3.35-.2,1.45,2.76,1.06,2.93-.23h0Z"></path><g><path class="cls-5" d="M402.85,203.47c-2.44,0-4.81,1.69-5.59,4.07s.17,5.25,2.23,6.58,5.05,.92,6.64-.99c1.18-1.42,1.52-3.5,.97-5.28s-1.96-3.23-3.64-3.94"></path><path class="cls-5" d="M403,202.5c-2.71,.04-5.48,1.64-6.75,4.06-1.14,2.17-.89,4.87,.54,6.85,1.59,2.2,4.47,2.86,7.02,2.2s4.73-2.84,4.99-5.62c.29-3.14-1.69-5.78-4.48-7-1.1-.48-3.36,1.1-1.71,1.82,1.75,.76,3.01,2.51,3.26,4.38,.13,.96-.04,1.99-.48,2.85-.2,.39-.44,.73-.75,1.04-.24,.24-.59,.45-.87,.57,.02,0-.42,.16-.22,.09s-.25,.07-.23,.06c-.09,.02-.19,.05-.28,.07,.25-.05,0,0-.04,0-.12,0-.24,.02-.36,.03-.26,.01,.31,.03-.14,0-.1,0-.19-.01-.29-.02,0,0-.38-.05-.24-.03-.83-.16-1.56-.59-2.14-1.22-1.22-1.36-1.68-3.35-1.15-5.1,.27-.88,.91-1.76,1.57-2.26,.1-.08,.21-.15,.31-.22,.06-.04,.13-.08,.19-.12-.08,.04-.08,.04,.01,0,.11-.06,.23-.12,.34-.17,.05-.02,.45-.18,.19-.09,.24-.08,.49-.15,.73-.2-.25,.04,.07,0,.13,0,.18-.02,.35-.02,.53-.03,.59,0,1.52-.45,1.61-1.1,.1-.73-.81-.84-1.31-.83h0Z"></path></g><g><path class="cls-5" d="M391.42,234.35c0-3.48,2.04-6.57,4-9.41,1.16-1.69,2.35-3.4,3.97-4.64,1.62-1.23,3.75-1.93,5.67-1.3,2.09,.68,3.47,2.73,4.44,4.75,1.36,2.83,2.26,5.9,2.65,9.03,.03,.27,.05,.59-.15,.77-.15,.14-.37,.15-.58,.15-6.26,.04-12.51,.08-18.77,.12"></path><path class="cls-5" d="M392.87,234.18c.06-3.13,1.61-5.81,3.31-8.33,1.49-2.21,3.23-5.3,5.97-6.1s4.86,2.24,5.9,4.4c.71,1.47,1.29,3.01,1.74,4.58,.21,.73,.39,1.46,.54,2.2,.12,.57,.62,2.08,.32,2.58l.77-.57c.39-.19-.59-.07-.66-.07-.41,0-.82,0-1.22,0-.75,0-1.5,0-2.24,.01-1.56,0-3.13,.02-4.69,.03-3.13,.02-6.26,.04-9.38,.06-.62,0-1.57,.2-1.91,.8s.28,.88,.79,.87c4.9-.03,9.79-.06,14.69-.09,1.16,0,2.31-.01,3.47-.02,1.02,0,2.26-.02,3.01-.85,.6-.67,.31-1.63,.18-2.43-.19-1.18-.46-2.35-.8-3.5-.98-3.33-2.61-7.96-6.14-9.37-3.93-1.58-8.05,.92-10.5,3.89-1.46,1.76-2.78,3.72-3.92,5.7-1.17,2.02-2.06,4.19-2.1,6.55-.02,1.21,2.88,.62,2.9-.35h0Z"></path></g></g><g id="folder-front"><g><path class="cls-2" d="M374.31,287.58c2-9.71,4-19.42,5.99-29.13,.4-1.96,.86-4.02,2.36-5.56,.73-.76,1.81-1.33,2.94-1.59,2.05-.46,3.68-1.98,4.43-3.94,.68-1.79,1.81-3.36,3.78-4.22,1.53-.67,3.31-.77,5.04-.84,11.79-.52,23.62-.51,35.42,.04,2.5,.12,5.04,.26,7.42,.93,.71,.2,1.42,.46,1.97,.89,.85,.67,1.19,1.68,1.28,2.65,.15,1.64-.32,3.27-.79,4.86-3.21,10.95-6.43,21.91-9.64,32.86-.14,.49-.3,.99-.7,1.36-.51,.48-1.33,.64-2.09,.77-11.67,1.9-50.41,2.74-57.39,.94"></path><path class="cls-2" d="M375.78,287.47c1.73-8.41,3.46-16.83,5.2-25.24,.41-1.98,.7-4.02,1.29-5.96,.5-1.63,1.36-3.21,3.06-3.81,1.51-.53,2.85-.9,4.07-2.02,1.17-1.07,1.7-2.34,2.38-3.74,1.82-3.73,6.1-3.32,9.65-3.45,4.26-.16,8.53-.25,12.79-.27,4.31-.02,8.61,.03,12.92,.16s8.58,.01,12.71,.86c.88,.18,2,.39,2.7,.99,.8,.68,.97,1.81,.95,2.8-.05,2.06-.86,4.11-1.43,6.07-1.21,4.13-2.42,8.25-3.63,12.38-1.21,4.13-2.42,8.25-3.63,12.38-.58,1.98-.98,4.18-1.79,6.08-.42,.99-1.66,.95-2.63,1.08-9.26,1.23-18.72,1.43-28.05,1.63-5.12,.1-10.24,.14-15.36,.04-3.5-.07-7.06-.14-10.54-.63-.25-.04-.51-.07-.76-.12-.13-.02-.26-.05-.39-.07-.31-.06,.1,.03-.1-.02-.71-.18-1.56-.05-2.05,.55-.39,.48-.31,1.25,.38,1.43,3.17,.8,6.57,.82,9.81,.93,5.27,.18,10.55,.18,15.82,.11,10.22-.15,20.57-.33,30.72-1.64,1.02-.13,2.1-.24,3.09-.52,2.13-.61,2.72-1.97,3.3-3.96,1.3-4.44,2.61-8.89,3.91-13.33,1.3-4.44,2.61-8.89,3.91-13.33,.62-2.12,1.28-4.24,1.86-6.37,.48-1.79,.85-3.85,.05-5.61-.83-1.82-2.7-2.42-4.51-2.84-2.12-.49-4.29-.63-6.45-.73-4.63-.22-9.26-.35-13.89-.41-4.59-.06-9.19-.03-13.78,.07-2.3,.05-4.59,.12-6.88,.22-2.04,.08-4.16,.08-6.13,.68-1.68,.52-3.24,1.48-4.32,2.89-1,1.31-1.32,3.02-2.43,4.23-1.2,1.31-2.92,1.33-4.4,2.16s-2.68,2.23-3.35,3.86c-.72,1.75-1.01,3.67-1.39,5.51-.47,2.27-.93,4.53-1.4,6.8-.93,4.53-1.86,9.06-2.8,13.59-.47,2.27-.93,4.53-1.4,6.8-.3,1.44,2.67,1.1,2.94-.21h0Z"></path></g><path class="cls-1" d="M388.55,262.43c-.59,2.03-1.11,4.08-1.55,6.14-.21,.98-.41,1.96-.58,2.95-.13,.74-.4,1.64-.14,2.38,.26,.77,1.05,1.03,1.8,1.09,1.02,.07,2.07-.02,3.09-.03,2.13-.04,4.26-.07,6.39-.11,1.94-.03,4.28,.28,5.97-.88,1.29-.88,1.64-2.38,1.9-3.82,.34-1.92,.84-3.89,1-5.83,.13-1.62-.54-2.89-2.29-3.02-1.01-.07-2.04,.14-3.04,.22-1.15,.09-2.31,.15-3.47,.16-2.39,.02-4.78-.12-7.16-.41-.61-.07-1.6,.24-1.91,.81-.34,.63,.3,.86,.8,.92,3.44,.42,6.9,.51,10.36,.29,.78-.05,1.55-.12,2.33-.2,.61-.06,1.12-.2,1.37,.48,.19,.52,.11,1.11,.02,1.64-.13,.85-.3,1.69-.44,2.53-.26,1.46-.37,3.05-.87,4.45-.16,.44-.32,.82-.67,.88-.83,.15-1.79,.03-2.63,.05-1.74,.03-3.48,.06-5.21,.09-.78,.01-1.57,.03-2.35,.04-.53,0-1.87,.29-2.12-.21-.28-.55,.17-1.78,.28-2.34,.17-.93,.36-1.86,.56-2.78,.43-1.96,.93-3.89,1.48-5.82,.32-1.09-2.61-.7-2.9,.34h0Z"></path><path class="cls-1" d="M386.34,277.43c7.71,.45,15.42,.69,23.14,.7,.65,0,1.51-.17,2.05-.55,.4-.28,.46-.54-.15-.54-7.72,0-15.44-.24-23.14-.7-.63-.04-1.53,.18-2.05,.55-.43,.3-.43,.51,.15,.54h0Z"></path><path class="cls-1" d="M385.82,280.93c8.43,.25,16.86,.51,25.29,.76,.65,.02,1.6-.19,1.9-.85,.28-.61-.24-1.07-.85-1.09-8.43-.25-16.86-.51-25.29-.76-.65-.02-1.6,.19-1.9,.85-.28,.61,.24,1.07,.85,1.09h0Z"></path></g></g></g><g id="effect"><path class="cls-2" d="M385.65,347.79c-7.4,3.98-13.61,9.97-17.73,17.31-3.12,5.55-7.31,17.03,1.56,19.81,3.82,1.2,8.2-.05,11.36-2.31,1.7-1.21,3.15-2.75,4.42-4.4,1.06-1.37,3.07-3.5,1.71-5.25-1.12-1.44-3.37-1.74-5.06-1.62-2.12,.15-4.16,.94-5.97,2.02-3.68,2.2-6.68,5.66-9.26,9.03-6.07,7.92-9.92,17.41-11,27.33-.09,.83,2.79,.28,2.87-.47,.81-7.41,3.15-14.61,6.85-21.08,1.88-3.29,4.11-6.38,6.65-9.2,1.25-1.38,2.55-2.76,4-3.93,1.39-1.12,3.16-2.42,5.02-2.43,1.99-.01,4.25,1.35,3.11,3.55-.85,1.63-2.23,3.18-3.51,4.49-2.53,2.58-5.88,4.38-9.47,2.84-3.23-1.38-4.34-4.9-4.14-8.16,.21-3.47,1.66-6.8,3.27-9.84,3.84-7.23,9.82-13.31,17.03-17.19,.38-.21,.86-.54,.33-.85-.49-.28-1.6,.11-2.03,.35h0Z"></path><path class="cls-2" d="M404.41,350.69c-1.12,4.04-1.9,8.16-2.35,12.33-.02,.19,.04,.33,.26,.37,1.55,.32,3.06,.05,4.54-.49,1.26-.47,2.89-1.74,4.27-1.24,1.47,.53,2.24,2.24,2.34,3.7,.15,2.1-.95,4.11-1.93,5.9s-2.07,3.61-3.23,5.35c-.57,.85-1.16,1.69-1.76,2.52-.43,.59-1.13,1.35-.89,2.16,.22,.7,1.11,.99,1.7,1.26,1.01,.46,2.03,.9,3.05,1.33,2.05,.86,4.12,1.67,6.2,2.43l-.14-.54c-4.18,5.45-6,12.79-4.31,19.51,.72,2.87,2.5,5.32,5.73,5.19,3.48-.15,6.25-2.62,8.32-5.19,.41-.51-.36-.6-.72-.59-.58,.01-1.54,.23-1.93,.72-.85,1.06-1.77,2.1-2.86,2.92-1.23,.92-2.32,1.07-3.57,.04-1.93-1.58-2.36-4.63-2.58-6.95-.51-5.59,1.15-11.32,4.57-15.77,.19-.24,.16-.43-.14-.54-2.09-.76-4.16-1.57-6.2-2.43-1.02-.43-2.05-.86-3.05-1.33-.36-.17-1.02-.38-1.16-.82-.22-.67,.55-1.39,.9-1.88,2.28-3.17,4.61-6.59,6.12-10.2,1.13-2.7,1.24-6.79-2.11-7.98-1.46-.52-3.13-.18-4.55,.31-1.25,.43-2.91,1.7-4.26,1.42l.26,.37c.45-4.17,1.23-8.29,2.35-12.33,.21-.74-2.65-.34-2.87,.46h0Z"></path><path class="cls-2" d="M431.6,350.28c1.29,6.66,3.59,13.05,6.79,19.03,.54,1.02,3.34,.03,2.67-1.22-3.11-5.82-5.3-12.1-6.56-18.58-.23-1.21-3.14-.48-2.9,.78h0Z"></path><path class="cls-2" d="M452.1,341.74c2.26,4.57,5.86,8.31,10.33,10.76,.58,.32,1.53,.03,2.05-.29,.41-.25,.86-.75,.27-1.08-4.19-2.29-7.64-5.89-9.75-10.17-.27-.55-1.14-.43-1.63-.3-.29,.08-1.53,.55-1.27,1.07h0Z"></path><path class="cls-2" d="M425.62,144.1c-.49-5.16,.04-10.35,1.57-15.31,.22-.71-2.62-.34-2.87,.47-1.56,5.05-2.1,10.36-1.6,15.62,.06,.66,2.98,.1,2.9-.78h0Z"></path><path class="cls-2" d="M443.48,150.91c.34-5.44,1.54-10.81,3.59-15.86,.48-1.19,1.01-2.35,1.58-3.5,.51-1.02,1.05-2.2,1.95-2.95,.94-.78,2.32-.13,3.22,.46,1.08,.71,1.88,1.73,2.5,2.85,.57,1.04,.99,2.14,1.38,3.26,.45,1.27,.96,2.65,.88,4.02-.04,.69-.23,1.33-.65,1.87-.1,.14-.63,.45-.36,.42s-.63-.52-.74-.62c-.83-.75-1.38-1.83-1.69-2.89-1.36-4.63,1.41-8.97,4.48-12.18,3.67-3.84,8.29-7.28,9.61-12.7,.18-.73-2.68-.31-2.87,.48-1.53,6.3-7.49,9.7-11.26,14.53-1.69,2.16-2.93,4.57-3.15,7.34-.2,2.42,.51,5.63,2.81,6.95,1.99,1.14,5.08-.11,6.19-1.97,.77-1.29,.59-2.88,.21-4.27-.44-1.63-1.05-3.32-1.84-4.81-1.27-2.4-3.34-4.24-6.15-4.38-2.67-.13-5.05,1.17-6.46,3.39-1.92,3.04-3.21,6.66-4.2,10.1-1.06,3.67-1.69,7.45-1.92,11.26-.03,.52,2.84,.15,2.9-.78h0Z"></path><path class="cls-2" d="M459.35,161.97c3.48-3.01,7.3-5.62,11.41-7.71,.24-.12,.98-.53,.37-.7-.57-.16-1.52,.13-2.02,.39-4.44,2.26-8.6,5.02-12.37,8.28-.49,.42,.44,.44,.67,.42,.63-.06,1.45-.25,1.94-.68h0Z"></path></g></svg>